<?xml version="1.0" encoding="utf-8"?>
<!-- Generator: Adobe Illustrator 23.1.0, SVG Export Plug-In . SVG Version: 6.00 Build 0)  -->
<svg version="1.1" id="Слой_1" xmlns="http://www.w3.org/2000/svg" xmlns:xlink="http://www.w3.org/1999/xlink" x="0px" y="0px"
	 viewBox="0 0 142.7 47.7" style="enable-background:new 0 0 142.7 47.7;" xml:space="preserve">
<style type="text/css">
	.st0{enable-background:new    ;}
	.st1{fill:#A89365;}
</style>
<g class="st0">
	<g>
		<path class="st1" d="M19.7,46.6H6.5V12.8H0.3V1.3h19.4C19.7,1.3,19.7,46.6,19.7,46.6z M8.5,44.6h9.2V3.3H2.3v7.6h6.2
			C8.5,10.9,8.5,44.6,8.5,44.6z"/>
	</g>
	<g>
		<path class="st1" d="M57.1,46.6H44.7v-8.2h-21v-8.5L40.8,1.2h16.3v26.5h5.3v10.6h-5.3V46.6z M46.7,44.6h8.4v-8.2h5.3v-6.6h-5.3
			V3.3H42L25.7,30.5v5.9h21V44.6z M46.7,29.8h-13L46.6,7.4v22.4H46.7z M37.2,27.8h7.5v-13L37.2,27.8z"/>
	</g>
	<g>
		<path class="st1" d="M97.7,46.6H85.3v-8.2h-21v-8.5L81.4,1.2h16.3v26.5h5.3v10.6h-5.3V46.6z M87.3,44.6h8.4v-8.2h5.3v-6.6h-5.3
			V3.3H82.6L66.3,30.5v5.9h21V44.6z M87.3,29.8H74.4L87.3,7.4V29.8z M77.8,27.8h7.5v-13L77.8,27.8z"/>
	</g>
	<g>
		<path class="st1" d="M123.1,47.6c-4.9,0-9.1-1.8-12.7-5.2c-4.5-4.4-6.7-10.6-6.7-18.4c0-7.9,2.3-14.1,6.7-18.5
			c3.5-3.5,7.8-5.2,12.7-5.2s9.1,1.8,12.7,5.2c4.5,4.4,6.7,10.6,6.7,18.5c0,7.8-2.3,14-6.7,18.4C132.2,45.8,128,47.6,123.1,47.6z
			 M123.1,2.3c-4.4,0-8.1,1.5-11.3,4.7c-4.1,4-6.1,9.7-6.1,17s2.1,13,6.1,17c3.2,3.1,6.9,4.7,11.3,4.7c4.4,0,8.1-1.5,11.3-4.7
			c4.1-4,6.1-9.7,6.1-17s-2.1-13-6.1-17C131.2,3.8,127.5,2.3,123.1,2.3z M123.1,37.7c-1.6,0-2.9-0.5-4.1-1.6c-1.3-1.2-2.3-3-3-5.4
			s-1-4.6-1-6.6c0-2.2,0.4-4.5,1.1-6.8c0.8-2.4,1.8-4.2,3-5.2c1.2-1.1,2.5-1.6,4.1-1.6c1.5,0,2.9,0.5,4.1,1.6c1.2,1.1,2.2,2.8,3,5.3
			c0.7,2.4,1.1,4.7,1.1,6.8s-0.4,4.4-1.1,6.7c-0.7,2.4-1.8,4.2-3,5.3C126,37.2,124.6,37.7,123.1,37.7z M123.1,12.4
			c-1.1,0-2,0.4-2.8,1.1c-1,0.8-1.8,2.3-2.4,4.3c-0.7,2.1-1,4.2-1,6.2c0,1.8,0.3,3.9,1,6.1c0.6,2.1,1.4,3.6,2.5,4.5
			c0.8,0.8,1.7,1.1,2.8,1.1c1,0,2-0.4,2.8-1.1c1-0.9,1.8-2.4,2.4-4.4c0.7-2.1,1-4.2,1-6.1c0-1.9-0.3-4-1-6.2
			c-0.7-2.1-1.5-3.6-2.4-4.4C125,12.7,124.1,12.4,123.1,12.4z"/>
	</g>
</g>
</svg>
