<svg xmlns="http://www.w3.org/2000/svg" width="88.961" height="99" viewBox="0 0 88.961 99">
  <g id="projects-item__icon" transform="translate(1 1)">
    <path id="Path_246" data-name="Path 246" d="M89.961,69.628V30.979a9.663,9.663,0,0,0-4.831-8.358L51.311,3.3a9.662,9.662,0,0,0-9.662,0L7.831,22.621A9.662,9.662,0,0,0,3,30.979V69.628a9.663,9.663,0,0,0,4.831,8.358L41.649,97.311a9.661,9.661,0,0,0,9.662,0L85.129,77.986a9.664,9.664,0,0,0,4.831-8.358Z" transform="translate(-3 -2.002)" fill="none" stroke="#a89365" stroke-linecap="round" stroke-linejoin="round" stroke-width="2"/>
    <path id="Path_247" data-name="Path 247" d="M3.27,6.96l42.176,24.4L87.621,6.96" transform="translate(-1.967 16.993)" fill="none" stroke="#a89365" stroke-linecap="round" stroke-linejoin="round" stroke-width="2"/>
    <path id="Path_248" data-name="Path 248" d="M12,60.7V12" transform="translate(31.48 36.302)" fill="none" stroke="#a89365" stroke-linecap="round" stroke-linejoin="round" stroke-width="2"/>
  </g>
</svg>
