<svg xmlns="http://www.w3.org/2000/svg" width="72" height="56" viewBox="0 0 72 56">
  <path id="fa-brands_cc-mastercard" d="M60.362,51.287a1.4,1.4,0,1,1-1.4-1.462A1.4,1.4,0,0,1,60.362,51.287Zm-38.85-1.462a1.466,1.466,0,1,0,1.362,1.462A1.382,1.382,0,0,0,21.513,49.825ZM36.2,49.787a1.159,1.159,0,0,0-1.187,1.088H37.4A1.149,1.149,0,0,0,36.2,49.787Zm13.475.038a1.464,1.464,0,1,0,1.4,1.462A1.382,1.382,0,0,0,49.675,49.825Zm13.237,3.263c0,.037.038.063.038.137,0,.038-.038.063-.038.138a.439.439,0,0,0-.062.1.161.161,0,0,1-.137.063c-.038.037-.062.037-.138.037a.248.248,0,0,1-.138-.037c-.037,0-.062-.038-.1-.062s-.062-.062-.062-.1a.227.227,0,0,1-.038-.138c0-.062,0-.1.038-.137a.235.235,0,0,1,.063-.138.438.438,0,0,1,.1-.062.227.227,0,0,1,.138-.038c.063,0,.1,0,.138.038.063.037.1.037.137.063S62.875,53.025,62.912,53.088Zm-.275.175c.063,0,.063-.038.1-.038a.152.152,0,0,0,0-.2c-.037,0-.062-.038-.138-.038h-.2v.438h.1V53.25h.037l.138.175h.1ZM72,10.125v44a6,6,0,0,1-6,6H6a6,6,0,0,1-6-6v-44a6,6,0,0,1,6-6H66A6,6,0,0,1,72,10.125ZM8,27.575A17.3,17.3,0,0,0,34.875,42a18.641,18.641,0,0,1,0-28.812A17.3,17.3,0,0,0,8,27.575Zm28,13.6a17.307,17.307,0,0,0,0-27.187A17.307,17.307,0,0,0,36,41.175ZM18.212,50.713a1.752,1.752,0,0,0-1.837-1.838,1.787,1.787,0,0,0-1.6.813,1.657,1.657,0,0,0-1.525-.812,1.587,1.587,0,0,0-1.325.675V49H10.9v4.588h1.025c0-2.363-.312-3.775,1.125-3.775,1.275,0,1.025,1.275,1.025,3.775h.988c0-2.288-.312-3.775,1.125-3.775,1.275,0,1.025,1.25,1.025,3.775h1.025V50.713ZM23.825,49h-.988v.55a1.8,1.8,0,0,0-1.462-.675,2.417,2.417,0,0,0,0,4.825,1.733,1.733,0,0,0,1.462-.675V53.6h.988Zm5.063,3.2c0-1.875-2.863-1.025-2.863-1.9,0-.712,1.488-.6,2.313-.138l.413-.812c-1.175-.762-3.775-.75-3.775,1.025s2.862,1.037,2.862,1.875c0,.787-1.687.725-2.587.1l-.437.788C26.212,54.088,28.888,53.888,28.888,52.2Zm4.425,1.162-.275-.85c-.475.263-1.525.55-1.525-.513V49.925H33.15V49H31.513V47.6H30.487V49h-.95v.912h.95V52C30.487,54.2,32.65,53.8,33.313,53.362Zm1.662-1.675h3.438c0-2.025-.925-2.825-2.175-2.825a2.251,2.251,0,0,0-2.275,2.413c0,2.563,2.825,2.987,4.225,1.775l-.475-.75C36.737,53.1,35.263,53.025,34.975,51.688ZM42.362,49a1.467,1.467,0,0,0-1.9.55V49H39.438v4.588h1.025V51a1.043,1.043,0,0,1,1.6-1.05Zm1.325,2.287c0-1.425,1.45-1.887,2.588-1.05l.475-.812a2.474,2.474,0,1,0,0,3.75l-.475-.812C45.125,53.175,43.688,52.688,43.688,51.287ZM52.025,49H51v.55c-1.037-1.375-3.737-.6-3.737,1.737,0,2.4,2.8,3.088,3.737,1.738V53.6h1.025Zm4.212,0a1.5,1.5,0,0,0-1.9.55V49H53.35v4.588h.988V51a1.049,1.049,0,0,1,1.6-1.05Zm5.038-1.862h-.988V49.55c-1.025-1.362-3.737-.638-3.737,1.737,0,2.425,2.813,3.075,3.737,1.738V53.6h.988Zm.95-9.388v.575h.1V37.75h.237v-.1h-.575v.1Zm.825,15.475a.381.381,0,0,0-.037-.2c-.038-.038-.062-.1-.1-.138s-.1-.062-.137-.1c-.062,0-.138-.037-.2-.037a1.329,1.329,0,0,1-.175.037.653.653,0,0,0-.138.1.2.2,0,0,0-.1.138.381.381,0,0,0-.037.2.364.364,0,0,0,.037.175.2.2,0,0,0,.1.137.433.433,0,0,0,.138.1.34.34,0,0,0,.175.037.381.381,0,0,0,.2-.037c.037-.038.1-.062.137-.1s.063-.1.1-.137A.364.364,0,0,0,63.05,53.225Zm.4-15.587h-.175l-.2.438-.2-.437H62.7v.675h.1V37.8l.2.438h.138l.175-.437v.513h.138ZM64,27.575a17.3,17.3,0,0,0-26.875-14.4,18.641,18.641,0,0,1,0,28.812A17.3,17.3,0,0,0,64,27.575Z" transform="translate(0 -4.125)" fill="#fff"/>
</svg>
