<svg xmlns="http://www.w3.org/2000/svg" width="72" height="56" viewBox="0 0 72 56">
  <path id="fa-brands_cc-mir" d="M72,10V54a6,6,0,0,1-6,6H6a6,6,0,0,1-6-6V10A6,6,0,0,1,6,4H66A6,6,0,0,1,72,10ZM20.663,30.428,17.438,40.909h-3.97L10.24,30.422a.364.364,0,0,0-.721.066V40.909H4V23h6.148a2.637,2.637,0,0,1,2.377,1.747l2.686,8.727c.134.434.351.434.484,0l2.686-8.727A2.636,2.636,0,0,1,20.757,23H26.9V40.909H21.385V30.488a.364.364,0,0,0-.722-.059Zm20.613-.315,0,.009-.011.024-4.508,9.6A2.215,2.215,0,0,1,35,40.907v0H29.48V23H35V33.416a.369.369,0,0,0,.671.208v0a.361.361,0,0,0,.05-.106l4.392-9.356A2.213,2.213,0,0,1,41.9,23h5.519V40.909H41.9V30.264a.332.332,0,0,0-.621-.151Zm17.019.105c-4.692,0-8.533-3.185-8.855-7.218H61.929a6.078,6.078,0,0,1,5.963,7.218Zm-8.119.913V41H55.7V35.152h6.255a6.117,6.117,0,0,0,5.712-4.02Z" transform="translate(0 -4)" fill="#fff" fill-rule="evenodd"/>
</svg>
