<svg xmlns="http://www.w3.org/2000/svg" width="72" height="56" viewBox="0 0 72 56">
  <path id="fa-brands_cc-visa" d="M58.763,28.913s.95,4.65,1.162,5.625H55.75c.412-1.112,2-5.437,2-5.437-.025.038.412-1.138.662-1.863ZM72,10V54a6,6,0,0,1-6,6H6a6,6,0,0,1-6-6V10A6,6,0,0,1,6,4H66A6,6,0,0,1,72,10ZM19.063,41.4l7.9-19.4H21.65L16.737,35.25,16.2,32.563l-1.75-8.925A2.09,2.09,0,0,0,12.175,22H4.088L4,22.388a19.836,19.836,0,0,1,5.275,2.137L13.75,41.4Zm11.8.025L34.013,22H28.987L25.85,41.425Zm17.487-6.35c.025-2.213-1.325-3.9-4.212-5.288C42.375,28.9,41.3,28.3,41.3,27.388c.025-.825.913-1.675,2.888-1.675a8.613,8.613,0,0,1,3.737.738l.45.212.688-4.2a12.483,12.483,0,0,0-4.5-.825c-4.963,0-8.45,2.65-8.475,6.425-.038,2.788,2.5,4.338,4.4,5.275,1.938.95,2.6,1.575,2.6,2.412-.025,1.3-1.575,1.9-3.013,1.9a10.013,10.013,0,0,1-4.713-1.038L34.7,36.3,34,40.662A15.338,15.338,0,0,0,39.6,41.7C44.875,41.713,48.313,39.1,48.35,35.075ZM66,41.425,61.95,22H58.063a2.472,2.472,0,0,0-2.625,1.612L47.975,41.425H53.25s.862-2.4,1.05-2.912h6.45c.15.688.6,2.912.6,2.912Z" transform="translate(0 -4)" fill="#fff"/>
</svg>
