<svg xmlns="http://www.w3.org/2000/svg" xmlns:xlink="http://www.w3.org/1999/xlink" width="271" height="271" viewBox="0 0 271 271">
  <defs>
    <clipPath id="clip-path">
      <rect id="Rectangle_281" data-name="Rectangle 281" width="271" height="271" transform="translate(-2285 9761)" fill="#fff"/>
    </clipPath>
  </defs>
  <g id="handshake" transform="translate(2285 -9761)" clip-path="url(#clip-path)">
    <g id="рукопожатие" transform="translate(-2286.228 9808.094)">
      <path id="Path_480" data-name="Path 480" d="M95.24,169.382a10.337,10.337,0,0,1-13.922-4.7h0a10.337,10.337,0,0,1,4.7-13.922l55.868-28.025" transform="translate(-3.81 -6.165)" fill="none" stroke="#a89365" stroke-miterlimit="10" stroke-width="7.623"/>
      <line id="Line_94" data-name="Line 94" y1="26.94" x2="50.626" transform="translate(90.708 136.638)" fill="none" stroke="#a89365" stroke-miterlimit="10" stroke-width="7.623"/>
      <path id="Path_481" data-name="Path 481" d="M122.07,106.915,66.2,134.94a10.493,10.493,0,0,0-4.7,13.922h0c2.531,5.062,8.5,5.786,13.922,4.7l8.5-2.893" transform="translate(-2.794 -5.355)" fill="none" stroke="#a89365" stroke-miterlimit="10" stroke-width="7.623"/>
      <path id="Path_482" data-name="Path 482" d="M93.356,96.243,63.343,110.889a10.493,10.493,0,0,0-4.7,13.922h0c2.531,5.062,8.5,5.786,13.922,4.7l8.5-2.893" transform="translate(-2.647 -4.806)" fill="none" stroke="#a89365" stroke-miterlimit="10" stroke-width="7.623"/>
      <path id="Path_483" data-name="Path 483" d="M146.474,142.138l-34.533,19.346a10.493,10.493,0,0,0-4.7,13.922h0a10.493,10.493,0,0,0,13.922,4.7s68.706-34.173,74.136-37.788,30.731-19.889,43.389-32.545" transform="translate(-5.14 -5.5)" fill="none" stroke="#a89365" stroke-miterlimit="10" stroke-width="7"/>
      <path id="Path_484" data-name="Path 484" d="M72.42,17.993a56.235,56.235,0,0,0,21.7,0c9.041-1.809,18.08-3.621,27.121,0s63.282,21.7,63.282,21.7c3.621,32.545-50.626,5.424-50.626,5.424S128.47,70.427,110.39,72.23a113.4,113.4,0,0,1-32.545-1.809" transform="translate(-3.409 -0.688)" fill="none" stroke="#a89365" stroke-miterlimit="10" stroke-width="7.623"/>
      <rect id="Rectangle_155" data-name="Rectangle 155" width="39.594" height="94.918" transform="matrix(0.875, -0.484, 0.484, 0.875, 186.458, 21.654)" fill="none" stroke="#a89365" stroke-miterlimit="10" stroke-width="7.623"/>
      <rect id="Rectangle_156" data-name="Rectangle 156" width="39.597" height="94.924" transform="matrix(0.961, 0.278, -0.278, 0.961, 32.328, 6.63)" fill="none" stroke="#a89365" stroke-miterlimit="10" stroke-width="7.623"/>
    </g>
  </g>
</svg>
