<svg xmlns="http://www.w3.org/2000/svg" width="190.002" height="155" viewBox="0 0 190.002 155">
  <g id="solution-item__img" transform="translate(1.5 1.5)">
    <rect id="Rectangle_140" data-name="Rectangle 140" width="98.416" height="41.052" transform="translate(43.104 68.492)" fill="none" stroke="#a89365" stroke-miterlimit="10" stroke-width="3"/>
    <g id="Group_140" data-name="Group 140" transform="translate(50.775 76.81)">
      <rect id="Rectangle_141" data-name="Rectangle 141" width="56.608" height="13.828" transform="translate(13.396)" fill="none" stroke="#a89365" stroke-miterlimit="10" stroke-width="3"/>
      <circle id="Ellipse_85" data-name="Ellipse 85" cx="4.321" cy="4.321" r="4.321" transform="translate(0 2.593)" fill="none" stroke="#a89365" stroke-miterlimit="10" stroke-width="3"/>
      <circle id="Ellipse_86" data-name="Ellipse 86" cx="4.321" cy="4.321" r="4.321" transform="translate(74.434 2.593)" fill="none" stroke="#a89365" stroke-miterlimit="10" stroke-width="3"/>
    </g>
    <rect id="Rectangle_142" data-name="Rectangle 142" width="15.016" height="2.701" transform="translate(64.171 98.525)" fill="#a89365"/>
    <rect id="Rectangle_143" data-name="Rectangle 143" width="15.016" height="2.701" transform="translate(81.348 98.525)" fill="#a89365"/>
    <rect id="Rectangle_144" data-name="Rectangle 144" width="15.016" height="2.701" transform="translate(98.308 98.525)" fill="#a89365"/>
    <circle id="Ellipse_87" data-name="Ellipse 87" cx="2.593" cy="2.593" r="2.593" transform="translate(117.43 97.336)" fill="#a89365"/>
    <rect id="Rectangle_145" data-name="Rectangle 145" width="98.092" height="34.786" transform="translate(44.185 116.026)" fill="none" stroke="#a89365" stroke-miterlimit="10" stroke-width="3"/>
    <circle id="Ellipse_88" data-name="Ellipse 88" cx="10.263" cy="10.263" r="10.263" transform="translate(50.775 122.291)" fill="none" stroke="#a89365" stroke-miterlimit="10" stroke-width="3"/>
    <circle id="Ellipse_89" data-name="Ellipse 89" cx="3.889" cy="3.889" r="3.889" transform="translate(90.206 130.178)" fill="none" stroke="#a89365" stroke-miterlimit="10" stroke-width="3"/>
    <rect id="Rectangle_146" data-name="Rectangle 146" width="35.974" height="151.028" transform="translate(151.028)" fill="none" stroke="#a89365" stroke-miterlimit="10" stroke-width="3"/>
    <circle id="Ellipse_90" data-name="Ellipse 90" cx="13.396" cy="13.396" r="13.396" transform="translate(155.673 113.973)" fill="none" stroke="#a89365" stroke-miterlimit="10" stroke-width="3"/>
    <circle id="Ellipse_91" data-name="Ellipse 91" cx="6.482" cy="6.482" r="6.482" transform="translate(162.587 32.95)" fill="none" stroke="#a89365" stroke-miterlimit="10" stroke-width="3"/>
    <circle id="Ellipse_92" data-name="Ellipse 92" cx="6.482" cy="6.482" r="6.482" transform="translate(162.587 7.562)" fill="none" stroke="#a89365" stroke-miterlimit="10" stroke-width="4"/>
    <path id="Path_459" data-name="Path 459" d="M169.134,120.7a8.51,8.51,0,0,1-8.534,8.318" transform="translate(7.389 6.453)" fill="none" stroke="#a89365" stroke-miterlimit="10" stroke-width="2"/>
    <circle id="Ellipse_93" data-name="Ellipse 93" cx="13.396" cy="13.396" r="13.396" transform="translate(155.565 76.378)" fill="none" stroke="#a89365" stroke-miterlimit="10" stroke-width="3"/>
    <circle id="Ellipse_94" data-name="Ellipse 94" cx="2.053" cy="2.053" r="2.053" transform="translate(167.016 126.072)" fill="#a89365"/>
    <circle id="Ellipse_95" data-name="Ellipse 95" cx="10.263" cy="10.263" r="10.263" transform="translate(113.325 122.183)" fill="none" stroke="#a89365" stroke-miterlimit="10" stroke-width="3"/>
    <rect id="Rectangle_147" data-name="Rectangle 147" width="35.974" height="151.028" transform="translate(0 0.972)" fill="none" stroke="#a89365" stroke-miterlimit="10" stroke-width="3"/>
    <circle id="Ellipse_96" data-name="Ellipse 96" cx="13.396" cy="13.396" r="13.396" transform="translate(4.645 114.945)" fill="none" stroke="#a89365" stroke-miterlimit="10" stroke-width="3"/>
    <circle id="Ellipse_97" data-name="Ellipse 97" cx="6.482" cy="6.482" r="6.482" transform="translate(11.559 33.922)" fill="none" stroke="#a89365" stroke-miterlimit="10" stroke-width="3"/>
    <circle id="Ellipse_98" data-name="Ellipse 98" cx="6.482" cy="6.482" r="6.482" transform="translate(11.559 8.534)" fill="none" stroke="#a89365" stroke-miterlimit="10" stroke-width="4"/>
    <path id="Path_460" data-name="Path 460" d="M29.334,121.6a8.51,8.51,0,0,1-8.534,8.318" transform="translate(-3.839 6.525)" fill="none" stroke="#a89365" stroke-miterlimit="10" stroke-width="2"/>
    <circle id="Ellipse_99" data-name="Ellipse 99" cx="13.396" cy="13.396" r="13.396" transform="translate(4.537 77.35)" fill="none" stroke="#a89365" stroke-miterlimit="10" stroke-width="3"/>
    <circle id="Ellipse_100" data-name="Ellipse 100" cx="2.053" cy="2.053" r="2.053" transform="translate(15.989 127.045)" fill="#a89365"/>
  </g>
</svg>
