<svg xmlns="http://www.w3.org/2000/svg" width="208.457" height="156" viewBox="0 0 208.457 156">
  <g id="solution-item__img" transform="translate(0 2)">
    <rect id="Rectangle_123" data-name="Rectangle 123" width="204.114" height="112.914" transform="translate(2.171)" fill="none" stroke="#b39b6b" stroke-width="4"/>
    <circle id="Ellipse_75" data-name="Ellipse 75" cx="8.686" cy="8.686" r="8.686" transform="translate(30.4 91.2)" fill="#fff" stroke="#b39b6b" stroke-width="4"/>
    <path id="Path_379" data-name="Path 379" d="M18,102.686A8.686,8.686,0,0,1,26.686,94H48.4a8.686,8.686,0,0,1,8.686,8.686v43.429H18Z" transform="translate(1.543 5.886)" fill="#fff" stroke="#b39b6b" stroke-width="4"/>
    <path id="Path_380" data-name="Path 380" d="M10,116.171A2.171,2.171,0,0,1,12.171,114h4.343a2.171,2.171,0,0,1,2.171,2.171V144.4H10Z" transform="translate(0.857 7.6)" fill="#fff" stroke="#b39b6b" stroke-width="4"/>
    <path id="Path_381" data-name="Path 381" d="M54,116.171A2.171,2.171,0,0,1,56.171,114h4.343a2.171,2.171,0,0,1,2.171,2.171V144.4H54Z" transform="translate(4.629 7.6)" fill="#fff" stroke="#b39b6b" stroke-width="4"/>
    <circle id="Ellipse_76" data-name="Ellipse 76" cx="8.686" cy="8.686" r="8.686" transform="translate(95.543 91.2)" fill="#fff" stroke="#b39b6b" stroke-width="4"/>
    <path id="Path_382" data-name="Path 382" d="M78,102.686A8.686,8.686,0,0,1,86.686,94H108.4a8.686,8.686,0,0,1,8.686,8.686v43.429H78Z" transform="translate(6.686 5.886)" fill="#fff" stroke="#b39b6b" stroke-width="4"/>
    <path id="Path_383" data-name="Path 383" d="M70,116.171A2.171,2.171,0,0,1,72.171,114h4.343a2.171,2.171,0,0,1,2.171,2.171V144.4H70Z" transform="translate(6 7.6)" fill="#fff" stroke="#b39b6b" stroke-width="4"/>
    <path id="Path_384" data-name="Path 384" d="M114,116.171A2.171,2.171,0,0,1,116.171,114h4.343a2.171,2.171,0,0,1,2.171,2.171V144.4H114Z" transform="translate(9.771 7.6)" fill="#fff" stroke="#b39b6b" stroke-width="4"/>
    <circle id="Ellipse_77" data-name="Ellipse 77" cx="8.686" cy="8.686" r="8.686" transform="translate(160.686 91.2)" fill="#fff" stroke="#b39b6b" stroke-width="4"/>
    <path id="Path_385" data-name="Path 385" d="M138,102.686A8.686,8.686,0,0,1,146.686,94H168.4a8.686,8.686,0,0,1,8.686,8.686v43.429H138Z" transform="translate(11.829 5.886)" fill="#fff" stroke="#b39b6b" stroke-width="4"/>
    <path id="Path_386" data-name="Path 386" d="M130,116.171A2.171,2.171,0,0,1,132.171,114h4.343a2.171,2.171,0,0,1,2.171,2.171V144.4H130Z" transform="translate(11.143 7.6)" fill="#fff" stroke="#b39b6b" stroke-width="4"/>
    <path id="Path_387" data-name="Path 387" d="M174,116.171A2.171,2.171,0,0,1,176.171,114h4.343a2.171,2.171,0,0,1,2.171,2.171V144.4H174Z" transform="translate(14.914 7.6)" fill="#fff" stroke="#b39b6b" stroke-width="4"/>
    <line id="Line_67" data-name="Line 67" x2="208.457" transform="translate(0 152)" fill="none" stroke="#b39b6b" stroke-width="4"/>
  </g>
</svg>
