<svg xmlns="http://www.w3.org/2000/svg" width="228" height="148" viewBox="0 0 228 148">
  <g id="in-line-solution-item__icon" transform="translate(-80 -2741)">
    <g id="handshake" transform="translate(80 2656.047)">
      <g id="Group_84" data-name="Group 84" transform="translate(0 84.952)">
        <g id="Group_83" data-name="Group 83">
          <path id="Path_302" data-name="Path 302" d="M152.471,113.818,95.26,94.084A22.157,22.157,0,0,0,78.583,95.1l-2.872,1.39a16.194,16.194,0,0,1-12.554.695l-4.91-1.76a5.062,5.062,0,0,0-.695-.371L28.275,85.1a2.83,2.83,0,0,0-2.131.139,2.741,2.741,0,0,0-1.39,1.575L.156,158.568a2.776,2.776,0,0,0,1.714,3.521l29.323,10.052a2.208,2.208,0,0,0,.926.185,2.7,2.7,0,0,0,1.2-.278,2.741,2.741,0,0,0,1.39-1.575L58.386,101.45l2.965,1.065a21.978,21.978,0,0,0,16.862-.973l2.872-1.39A16.277,16.277,0,0,1,93.5,99.365l55.08,18.993c-.417,2.409-1.575,6.393-4.586,8.477-2.687,1.853-6.578,1.946-11.488.232l-24.042-8.2a2.861,2.861,0,0,0-2.224.185,2.938,2.938,0,0,0-1.39,1.76c-.046.139-3.613,13.3-14.731,19.225-7.041,3.8-15.75,3.938-25.9.463a2.769,2.769,0,1,0-1.807,5.235,47.622,47.622,0,0,0,15.333,2.779,31.023,31.023,0,0,0,15.009-3.66c9.913-5.327,14.685-15.055,16.492-19.873l21.356,7.319c6.717,2.316,12.23,1.992,16.491-.926,6.856-4.725,7.18-14.453,7.227-14.87A2.756,2.756,0,0,0,152.471,113.818ZM30.406,165.98,6.317,157.734,29.109,91.258l23.44,8.014.556.278.093.046Z" transform="translate(0 -84.952)" fill="#a89365"/>
        </g>
      </g>
      <g id="Group_86" data-name="Group 86" transform="translate(44.953 85.416)">
        <g id="Group_85" data-name="Group 85" transform="translate(0 0)">
          <path id="Path_303" data-name="Path 303" d="M278.028,155.445,244.581,87.487a2.741,2.741,0,0,0-1.575-1.39,2.83,2.83,0,0,0-2.131.139L213.035,99.856a2.79,2.79,0,0,0-1.3,3.706l32.427,66.244-10.886,9.96a130.29,130.29,0,0,1-30.9,21.078L149.06,226.924a5.987,5.987,0,0,1-4.725.278,6.29,6.29,0,0,1-3.567-3.15,5.987,5.987,0,0,1-.278-4.725,6.29,6.29,0,0,1,3.15-3.567l29.787-14.592a2.776,2.776,0,0,0-2.409-5L141.88,210.432l-14.685,7.18a6.195,6.195,0,0,1-5.466-11.118l42.8-20.939a2.776,2.776,0,0,0-2.409-5l-31.686,15.519-11.118,5.42-5.235,2.548a6.194,6.194,0,1,1-5.466-11.118l5.281-2.594,38.31-18.761a2.776,2.776,0,1,0-2.409-5l-24.6,12.044-13.712,6.717a5.987,5.987,0,0,1-4.725.278,6.29,6.29,0,0,1-3.567-3.15,5.987,5.987,0,0,1-.278-4.725,6.29,6.29,0,0,1,3.15-3.567l20.336-9.96a2.776,2.776,0,0,0-2.409-5l-20.336,9.96a11.778,11.778,0,0,0-5.976,6.763,11.7,11.7,0,0,0,5.513,14.129,11.735,11.735,0,0,0,8.246,20.1c.51,0,1.019-.046,1.529-.093a11.918,11.918,0,0,0,1.019,7.088,11.726,11.726,0,0,0,10.562,6.578,11.454,11.454,0,0,0,5.142-1.2l5.049-2.5a11.214,11.214,0,0,0,1.158,6.346,11.778,11.778,0,0,0,6.763,5.976,12.18,12.18,0,0,0,3.845.649,11.793,11.793,0,0,0,5.142-1.2l53.319-26.081a135.348,135.348,0,0,0,32.2-22l12.091-11.118,27.47-13.434A2.79,2.79,0,0,0,278.028,155.445Zm-29.184,11.3-30.9-63.14,22.884-11.164,30.852,63.14Z" transform="translate(-97.04 -85.952)" fill="#a89365"/>
        </g>
      </g>
    </g>
    <rect id="Rectangle_210" data-name="Rectangle 210" width="228" height="148" transform="translate(80 2741)" fill="none"/>
  </g>
</svg>
