<svg id="Instagram" xmlns="http://www.w3.org/2000/svg" width="60" height="60" viewBox="0 0 60 60">
  <path id="Path_314" data-name="Path 314" d="M30,0A30,30,0,1,0,60,30,30,30,0,0,0,30,0ZM23.4,14.1c1.707-.078,2.252-.1,6.6-.1h0c4.347,0,4.89.019,6.6.1a11.777,11.777,0,0,1,3.887.743,8.186,8.186,0,0,1,4.68,4.679A11.855,11.855,0,0,1,45.9,23.4c.077,1.707.1,2.252.1,6.6s-.02,4.889-.1,6.6a11.861,11.861,0,0,1-.743,3.883,8.2,8.2,0,0,1-4.679,4.681A11.757,11.757,0,0,1,36.6,45.9c-1.707.078-2.25.1-6.6.1s-4.89-.019-6.6-.1a11.751,11.751,0,0,1-3.884-.743,8.188,8.188,0,0,1-4.679-4.681A11.759,11.759,0,0,1,14.1,36.6c-.077-1.707-.1-2.25-.1-6.6s.02-4.891.1-6.6a11.686,11.686,0,0,1,.743-3.883,8.185,8.185,0,0,1,4.681-4.679A11.741,11.741,0,0,1,23.4,14.1Z" fill="#fff" fill-rule="evenodd"/>
  <path id="Path_315" data-name="Path 315" d="M28.566,16.883H30c4.272,0,4.778.015,6.465.092a8.858,8.858,0,0,1,2.971.551,5.3,5.3,0,0,1,3.036,3.037,8.84,8.84,0,0,1,.551,2.97c.077,1.687.093,2.193.093,6.463s-.017,4.777-.093,6.463a8.849,8.849,0,0,1-.551,2.97,5.306,5.306,0,0,1-3.036,3.035,8.825,8.825,0,0,1-2.971.551c-1.687.077-2.193.093-6.465.093s-4.779-.017-6.465-.093a8.875,8.875,0,0,1-2.971-.552,5.3,5.3,0,0,1-3.037-3.036,8.84,8.84,0,0,1-.551-2.97c-.077-1.687-.092-2.193-.092-6.466s.015-4.777.092-6.463a8.858,8.858,0,0,1,.551-2.971,5.3,5.3,0,0,1,3.037-3.037,8.839,8.839,0,0,1,2.971-.552c1.476-.067,2.048-.087,5.03-.09Zm9.976,2.657a1.92,1.92,0,1,0,1.92,1.919,1.92,1.92,0,0,0-1.92-1.919ZM21.785,30A8.217,8.217,0,0,1,30,21.783h0A8.216,8.216,0,1,1,21.785,30Z" fill="#fff" fill-rule="evenodd"/>
  <path id="Path_316" data-name="Path 316" d="M30,24.667A5.333,5.333,0,1,1,24.668,30,5.333,5.333,0,0,1,30,24.667Z" fill="#fff" fill-rule="evenodd"/>
</svg>
