<svg xmlns="http://www.w3.org/2000/svg" width="46.914" height="65" viewBox="0 0 46.914 65">
  <g id="advantages-item__icon" transform="translate(-64.67)">
    <path id="Path_442" data-name="Path 442" d="M206.726,262.343a4.055,4.055,0,1,0,4.055,4.055A4.06,4.06,0,0,0,206.726,262.343Zm0,6.992a2.936,2.936,0,1,1,2.937-2.936A2.94,2.94,0,0,1,206.726,269.335Z" transform="translate(-118.704 -225.659)" fill="#a89365"/>
    <path id="Path_443" data-name="Path 443" d="M182.23,380.343a.559.559,0,0,0-.559.559v1.678a.559.559,0,0,0,1.119,0V380.9A.559.559,0,0,0,182.23,380.343Z" transform="translate(-100.64 -327.158)" fill="#a89365"/>
    <path id="Path_444" data-name="Path 444" d="M205.48,380.343a.559.559,0,0,0-.559.559v1.678a.559.559,0,0,0,1.119,0V380.9A.559.559,0,0,0,205.48,380.343Z" transform="translate(-120.639 -327.158)" fill="#a89365"/>
    <path id="Path_445" data-name="Path 445" d="M228.73,380.343a.559.559,0,0,0-.559.559v1.678a.559.559,0,0,0,1.119,0V380.9A.559.559,0,0,0,228.73,380.343Z" transform="translate(-140.638 -327.158)" fill="#a89365"/>
    <path id="Path_446" data-name="Path 446" d="M251.98,380.343a.559.559,0,0,0-.559.559v1.678a.559.559,0,0,0,1.119,0V380.9A.559.559,0,0,0,251.98,380.343Z" transform="translate(-160.637 -327.158)" fill="#a89365"/>
    <path id="Path_447" data-name="Path 447" d="M275.23,380.343a.559.559,0,0,0-.559.559v1.678a.559.559,0,0,0,1.119,0V380.9A.559.559,0,0,0,275.23,380.343Z" transform="translate(-180.636 -327.158)" fill="#a89365"/>
    <path id="Path_448" data-name="Path 448" d="M216.456,2.256l.833.326-.483.753a.559.559,0,0,0,.9.657l.567-.692.567.692a.572.572,0,0,0,.44.2.559.559,0,0,0,.437-.9l-.456-.711.834-.326a.559.559,0,0,0-.345-1.062l-.866.227-.052-.894a.559.559,0,0,0-1.117,0l-.052.894-.866-.227a.559.559,0,0,0-.345,1.062Z" transform="translate(-130.255)" fill="#a89365"/>
    <path id="Path_449" data-name="Path 449" d="M111.279,80.134a.559.559,0,0,0-.583.046L109.2,81.267l-1.5-1.087a.559.559,0,0,0-.888.453v3.706h-2.258V80.633a.559.559,0,0,0-.888-.452l-1.495,1.087-1.495-1.087a.559.559,0,0,0-.888.452v3.706H97.531v-8.32a.559.559,0,0,0-.559-.559h-.28V72.793a.559.559,0,0,0-1.119,0v2.666H94.8V64.972a.559.559,0,0,0-.559-.559h-.979V51.618a.559.559,0,0,0-.559-.559H91.594l-3.022-16.01a.559.559,0,0,0-1.1,0l-3.022,16.01H83.338a.559.559,0,0,0-.559.559V64.412H81.8a.559.559,0,0,0-.559.559V75.459H80.4V72.793a.559.559,0,0,0-1.119,0v2.666H79a.559.559,0,0,0-.559.559v8.32H76.461V80.633a.559.559,0,0,0-.888-.452l-1.495,1.087L72.583,80.18a.559.559,0,0,0-.888.452v3.706H69.437V80.633a.559.559,0,0,0-.888-.453l-1.5,1.087L65.558,80.18a.559.559,0,0,0-.888.453V94.2a.559.559,0,0,0,.559.559h45.8a.559.559,0,0,0,.559-.559V80.633A.559.559,0,0,0,111.279,80.134ZM79.562,76.578h2.762v3.943a.559.559,0,1,0,1.119,0V76.578h3.985v3.943a.559.559,0,1,0,1.119,0V76.578h3.985v3.943a.559.559,0,1,0,1.119,0V76.578h2.762V88.464H79.562V76.578Zm12.585-16.71H90.609V52.177h1.538ZM89.49,52.177v7.691H86.554V52.177ZM88.022,38.168l2.433,12.89H85.589ZM85.435,52.177v7.691H83.9V52.177ZM83.9,60.986h8.25v3.426H83.9V60.986Zm-1.538,4.545H93.685v9.928H82.359Zm-16.57,16.2.935.68a.56.56,0,0,0,.658,0l.937-.681V84.9a.559.559,0,0,0,.559.559h3.377a.559.559,0,0,0,.559-.559V81.731l.935.68a.559.559,0,0,0,.658,0l.935-.68V84.9a.559.559,0,0,0,.559.559h2.542v8.18H65.789V81.731ZM79.562,93.637V89.582h16.85v4.055Zm30.9,0H97.531v-8.18h2.822a.559.559,0,0,0,.559-.559V81.731l.935.68a.559.559,0,0,0,.658,0l.935-.68V84.9a.559.559,0,0,0,.559.559h3.377a.559.559,0,0,0,.559-.559V81.731l.937.681a.56.56,0,0,0,.658,0l.935-.68V93.637Z" transform="translate(0 -29.756)" fill="#a89365"/>
    <path id="Path_450" data-name="Path 450" d="M229.629,278.634h-.839v-.857a.559.559,0,0,0-1.119,0v1.416a.559.559,0,0,0,.559.559h1.4a.559.559,0,1,0,0-1.119Z" transform="translate(-140.208 -238.454)" fill="#a89365"/>
  </g>
</svg>
