<?xml version="1.0" encoding="utf-8"?>
<!-- Generator: Adobe Illustrator 23.1.0, SVG Export Plug-In . SVG Version: 6.00 Build 0)  -->
<svg version="1.1" id="Слой_1" xmlns="http://www.w3.org/2000/svg" xmlns:xlink="http://www.w3.org/1999/xlink" x="0px" y="0px"
	 viewBox="0 0 187 55" style="enable-background:new 0 0 187 55;" xml:space="preserve">
<style type="text/css">
	.st0{fill-rule:evenodd;clip-rule:evenodd;fill:#A89365;}
	.st1{fill:#A89365;}
	.st2{enable-background:new    ;}
</style>
<g id="Group_152" transform="translate(-75 -9)">
	<g id="logo" transform="translate(78 9)">
		<path id="Path_1" class="st0" d="M86.3,15v4.4h3.8L83.1,35H80v4.4h10.7V35h-2.8l0.9-1.9h7.6l0.9,1.9h-2.8v4.4h12.6V35h-2.5
			l-9.5-20H86.3z M92.6,24.4l1.9,4.4h-3.8L92.6,24.4z"/>
		<path id="Path_2" class="st0" d="M36.5,15v4.4h3.8L33.4,35h-3.1v4.4h10.7V35h-2.8l0.9-1.9h7.6l0.9,1.9h-2.8v4.4h12.6V35h-2.5
			l-9.4-20H36.5z M42.8,24.4l1.9,4.4h-3.8L42.8,24.4z"/>
		<path id="Path_3" class="st1" d="M0,15v4.4h2.5V35H0v4.4h12V35H9.4v-6.3h8.8V35h-2.5v4.4h12V35h-2.5V19.4h2.5V15h-12v4.4h2.5v5
			H9.4v-5H12V15H0z"/>
		<path id="Path_4" class="st0" d="M109,15v4.4h3.8v9.4H109v4.4h3.8V35H109v4.4h13.2V35H119v-1.9h10.7v-4.4h-1.9
			c1.9-1.2,3.1-3.3,3.1-5.6c0-4.4-4.4-8.1-6.9-8.1H109z M119.1,26.9v-7.5c0,0,3.8,0,3.8,3.8S119.1,26.9,119.1,26.9z"/>
		<path id="Path_5" class="st1" d="M58.6,15l3.2,6.9h4.4l-1.3-2.5h4.4c0,0,1.9,0,1.9,2.5s-1.9,2.5-1.9,2.5H63l2.2,4.4h4.1
			c0,0,1.9,0,1.9,3.1S69.3,35,69.3,35h-4.4l1.3-2.5h-4.4l-3.2,6.9h14.5c2.8-0.2,5.2-2.2,5.7-5c0.8-2.9-0.2-5.9-2.5-7.8
			c0,0,3.1-1.6,1.9-5.9c-0.7-2.6-2.6-4.6-5-5.6H58.6z"/>
		<path id="Path_6" class="st0" d="M161.3,19.4V35h-3.2v4.4h15.7c1.9,0,6.9-2.5,6.9-7.5s-2.8-5.6-2.8-5.6c1.3-1.6,1.9-3.6,1.6-5.6
			c-0.6-3.1-3.8-5.6-5.7-5.6h-15.7v4.4H161.3z M168.2,24.4v-5h1.3c0,0,3.1,0,3.1,2.5s-3.1,2.5-3.1,2.5H168.2z M168.2,35v-6.3h1.3
			c1.7,0,3.1,1.4,3.1,3.1c0,1.7-1.4,3.1-3.1,3.1H168.2z"/>
		<path id="Path_7" class="st0" d="M144.9,40c-3.1,0-12,0-12-12.5s8.8-12.5,12-12.5s12,0,12,12.5S148,40,144.9,40z M149.9,27.5
			c0,6.9-3.1,8.1-5,8.1s-4.4-1.3-4.4-8.1s2.5-8.1,4.4-8.1S149.9,20.6,149.9,27.5z"/>
		<path id="Path_8" class="st1" d="M93.2,10.6h4.4L106.5,0h-8.2L93.2,10.6z"/>
	</g>
	<g class="st2">
		<path class="st1" d="M75.6,61v-3.9H78v0.6h-1.7V61H75.6z"/>
		<path class="st1" d="M81.4,57.6v-0.6h0.7V61h-0.7v-0.6c-0.3,0.4-0.8,0.7-1.3,0.7c-0.5,0-1-0.2-1.4-0.6c-0.4-0.4-0.6-0.9-0.6-1.5
			c0-0.6,0.2-1.2,0.6-1.5C79,57.1,79.5,57,80,57C80.6,57,81,57.2,81.4,57.6z M80.1,57.6c-0.4,0-0.7,0.1-0.9,0.4
			c-0.3,0.3-0.4,0.6-0.4,1.1c0,0.4,0.1,0.8,0.3,1.1c0.2,0.3,0.5,0.4,0.9,0.4s0.7-0.1,1-0.4c0.2-0.3,0.4-0.6,0.4-1
			c0-0.5-0.1-0.8-0.4-1.1C80.7,57.7,80.4,57.6,80.1,57.6z"/>
		<path class="st1" d="M86,57.1V61h-0.7v-3.3h-1.4v1.8c0,0.5-0.1,0.9-0.3,1.1c-0.2,0.3-0.5,0.4-0.9,0.4c-0.1,0-0.1,0-0.2,0v-0.6
			c0.1,0,0.1,0,0.2,0c0.2,0,0.4-0.1,0.5-0.3c0.1-0.1,0.1-0.4,0.1-0.7v-2.4H86z"/>
		<path class="st1" d="M89.9,59.7l0.6,0.3c-0.1,0.3-0.3,0.5-0.5,0.6c-0.4,0.3-0.8,0.5-1.3,0.5c-0.5,0-1-0.2-1.4-0.5
			c-0.4-0.3-0.6-0.9-0.6-1.5c0-0.6,0.2-1.1,0.5-1.5c0.3-0.4,0.8-0.6,1.4-0.6c0.7,0,1.2,0.2,1.5,0.7c0.3,0.4,0.4,0.9,0.4,1.5h-3.1
			c0,0.4,0.1,0.7,0.4,1c0.2,0.2,0.5,0.4,0.9,0.4c0.3,0,0.6-0.1,0.8-0.3C89.7,60.1,89.8,59.9,89.9,59.7z M87.5,58.6h2.3
			c-0.1-0.3-0.2-0.6-0.4-0.7c-0.2-0.2-0.5-0.3-0.8-0.3c-0.3,0-0.5,0.1-0.8,0.3C87.7,58.1,87.6,58.3,87.5,58.6z"/>
		<path class="st1" d="M91.9,60.4v2.7h-0.7v-6.1h0.7v0.6c0.3-0.4,0.8-0.6,1.3-0.6c0.6,0,1.1,0.2,1.4,0.6s0.5,0.9,0.5,1.5
			c0,0.6-0.2,1.1-0.5,1.5s-0.8,0.6-1.4,0.6S92.3,60.9,91.9,60.4z M93.2,60.5c0.4,0,0.7-0.1,0.9-0.4c0.2-0.3,0.4-0.6,0.4-1
			c0-0.5-0.1-0.8-0.4-1.1c-0.3-0.3-0.6-0.4-0.9-0.4s-0.6,0.1-0.9,0.4c-0.3,0.3-0.4,0.6-0.4,1.1c0,0.4,0.1,0.8,0.4,1
			C92.5,60.4,92.8,60.5,93.2,60.5z"/>
		<path class="st1" d="M98.9,59.7l0.6,0.3c-0.1,0.3-0.3,0.5-0.5,0.6c-0.4,0.3-0.8,0.5-1.3,0.5c-0.5,0-1-0.2-1.4-0.5
			c-0.4-0.3-0.6-0.9-0.6-1.5c0-0.6,0.2-1.1,0.5-1.5c0.3-0.4,0.8-0.6,1.4-0.6c0.7,0,1.2,0.2,1.5,0.7c0.3,0.4,0.4,0.9,0.4,1.5h-3.1
			c0,0.4,0.1,0.7,0.4,1c0.2,0.2,0.5,0.4,0.9,0.4c0.3,0,0.6-0.1,0.8-0.3C98.6,60.1,98.8,59.9,98.9,59.7z M96.4,58.6h2.3
			c-0.1-0.3-0.2-0.6-0.4-0.7c-0.2-0.2-0.5-0.3-0.8-0.3c-0.3,0-0.5,0.1-0.8,0.3C96.6,58.1,96.5,58.3,96.4,58.6z"/>
		<path class="st1" d="M99.7,61l1.2-1.6c0,0-0.1,0-0.2,0s-0.2,0-0.3-0.1c-0.1-0.1-0.2-0.1-0.3-0.2c-0.2-0.2-0.3-0.5-0.3-0.8
			c0-0.4,0.1-0.7,0.4-0.9c0.2-0.2,0.6-0.3,1.2-0.3h1.4V61h-0.7v-1.6h-0.4l-1.1,1.6H99.7z M102.1,58.8v-1.2h-0.6
			c-0.3,0-0.5,0-0.6,0.1c-0.2,0.1-0.2,0.3-0.2,0.5c0,0.2,0.1,0.4,0.2,0.5c0.1,0.1,0.3,0.1,0.6,0.1H102.1z"/>
		<path class="st1" d="M108.7,54.3h0.8c-0.1,0.2-0.2,0.4-0.4,0.6c-0.2,0.2-0.3,0.3-0.5,0.3s-0.3,0.1-0.5,0.2c0,0-0.1,0-0.2,0.1
			c-0.1,0-0.2,0.1-0.3,0.1c-0.1,0-0.1,0-0.2,0.1c-0.1,0-0.2,0.1-0.3,0.1c-0.1,0-0.2,0.1-0.2,0.1c-0.2,0.2-0.4,0.4-0.6,0.8
			c-0.1,0.3-0.2,0.7-0.2,1h0c0.3-0.5,0.8-0.7,1.4-0.7c0.6,0,1.1,0.2,1.5,0.6c0.4,0.4,0.6,0.9,0.6,1.5c0,0.6-0.2,1.1-0.6,1.5
			s-0.9,0.6-1.6,0.6c-0.6,0-1-0.2-1.4-0.5c-0.4-0.4-0.7-1.1-0.7-2c0-1.7,0.4-2.7,1.1-3.2c0.1,0,0.1-0.1,0.2-0.1
			c0.1,0,0.1-0.1,0.2-0.1s0.1-0.1,0.2-0.1s0.1,0,0.2-0.1s0.2,0,0.2,0c0,0,0.1,0,0.2,0s0.2,0,0.2,0c0.3-0.1,0.4-0.1,0.6-0.2
			C108.6,54.6,108.7,54.5,108.7,54.3z M108.5,58c-0.3-0.3-0.6-0.4-1-0.4s-0.7,0.1-1,0.4c-0.3,0.3-0.4,0.6-0.4,1.1s0.1,0.8,0.4,1.1
			c0.3,0.3,0.6,0.4,1,0.4c0.4,0,0.7-0.1,1-0.4c0.3-0.3,0.4-0.6,0.4-1.1C108.9,58.6,108.8,58.2,108.5,58z"/>
		<path class="st1" d="M113.2,59.7l0.6,0.3c-0.1,0.3-0.3,0.5-0.5,0.6c-0.4,0.3-0.8,0.5-1.3,0.5c-0.5,0-1-0.2-1.4-0.5
			c-0.4-0.3-0.6-0.9-0.6-1.5c0-0.6,0.2-1.1,0.5-1.5c0.3-0.4,0.8-0.6,1.4-0.6c0.7,0,1.2,0.2,1.5,0.7c0.3,0.4,0.4,0.9,0.4,1.5h-3.1
			c0,0.4,0.1,0.7,0.4,1c0.2,0.2,0.5,0.4,0.9,0.4c0.3,0,0.6-0.1,0.8-0.3C113,60.1,113.2,59.9,113.2,59.7z M110.8,58.6h2.3
			c-0.1-0.3-0.2-0.6-0.4-0.7c-0.2-0.2-0.5-0.3-0.8-0.3c-0.3,0-0.5,0.1-0.8,0.3C111,58.1,110.9,58.3,110.8,58.6z"/>
		<path class="st1" d="M115,58.1l-0.5-0.4c0.2-0.2,0.3-0.4,0.5-0.5c0.2-0.1,0.5-0.2,0.9-0.2c0.4,0,0.7,0.1,0.9,0.3
			c0.2,0.2,0.3,0.4,0.3,0.8c0,0.4-0.1,0.6-0.4,0.8c0.2,0,0.3,0.1,0.5,0.3c0.2,0.2,0.3,0.4,0.3,0.7c0,0.4-0.2,0.8-0.5,1
			c-0.3,0.2-0.7,0.3-1.1,0.3c-0.4,0-0.8-0.1-1.1-0.3c-0.2-0.2-0.4-0.4-0.5-0.7l0.6-0.2c0.1,0.2,0.2,0.3,0.4,0.4
			c0.2,0.1,0.4,0.2,0.6,0.2c0.3,0,0.5-0.1,0.7-0.2c0.2-0.1,0.3-0.3,0.3-0.6c0-0.2-0.1-0.4-0.2-0.5c-0.1-0.1-0.3-0.1-0.6-0.1h-0.4
			v-0.6h0.3c0.2,0,0.4,0,0.5-0.1c0.1-0.1,0.2-0.2,0.2-0.4c0-0.2-0.1-0.3-0.2-0.4c-0.1-0.1-0.3-0.1-0.5-0.1c-0.2,0-0.4,0.1-0.5,0.2
			C115.2,57.8,115.1,57.9,115,58.1z"/>
		<path class="st1" d="M118.2,63.2l1.3-2.6l-1.8-3.6h0.8l1.4,2.8l1.3-2.8h0.8l-2.9,6.1H118.2z"/>
		<path class="st1" d="M122.2,57.1h3.2V61h-0.7v-3.3h-1.8V61h-0.7V57.1z"/>
		<path class="st1" d="M127.1,60.4v2.7h-0.7v-6.1h0.7v0.6c0.3-0.4,0.8-0.6,1.3-0.6c0.6,0,1.1,0.2,1.4,0.6s0.5,0.9,0.5,1.5
			c0,0.6-0.2,1.1-0.5,1.5s-0.8,0.6-1.4,0.6S127.4,60.9,127.1,60.4z M128.4,60.5c0.4,0,0.7-0.1,0.9-0.4c0.2-0.3,0.4-0.6,0.4-1
			c0-0.5-0.1-0.8-0.4-1.1c-0.3-0.3-0.6-0.4-0.9-0.4s-0.6,0.1-0.9,0.4c-0.3,0.3-0.4,0.6-0.4,1.1c0,0.4,0.1,0.8,0.4,1
			C127.6,60.4,128,60.5,128.4,60.5z"/>
		<path class="st1" d="M134,59.7l0.6,0.3c-0.1,0.3-0.3,0.5-0.5,0.6c-0.4,0.3-0.8,0.5-1.3,0.5c-0.5,0-1-0.2-1.4-0.5
			c-0.4-0.3-0.6-0.9-0.6-1.5c0-0.6,0.2-1.1,0.5-1.5c0.3-0.4,0.8-0.6,1.4-0.6c0.7,0,1.2,0.2,1.5,0.7c0.3,0.4,0.4,0.9,0.4,1.5h-3.1
			c0,0.4,0.1,0.7,0.4,1c0.2,0.2,0.5,0.4,0.9,0.4c0.3,0,0.6-0.1,0.8-0.3C133.8,60.1,133.9,59.9,134,59.7z M131.6,58.6h2.3
			c-0.1-0.3-0.2-0.6-0.4-0.7c-0.2-0.2-0.5-0.3-0.8-0.3c-0.3,0-0.5,0.1-0.8,0.3C131.8,58.1,131.6,58.3,131.6,58.6z"/>
		<path class="st1" d="M137.4,61v-1.5c-0.4,0.1-0.7,0.1-0.9,0.1c-0.4,0-0.8-0.1-1-0.3c-0.2-0.2-0.3-0.5-0.3-1v-1.2h0.7v1.1
			c0,0.2,0,0.4,0.1,0.5c0.1,0.2,0.3,0.3,0.6,0.3c0.3,0,0.6,0,0.9-0.1v-1.8h0.7V61H137.4z"/>
		<path class="st1" d="M139.1,61v-3.9h0.7v1.6h1.9v-1.6h0.7V61h-0.7v-1.7h-1.9V61H139.1z"/>
		<path class="st1" d="M146.6,60.5c-0.4,0.4-0.9,0.6-1.5,0.6c-0.6,0-1.1-0.2-1.5-0.6s-0.6-0.9-0.6-1.5c0-0.6,0.2-1.1,0.6-1.5
			s0.9-0.6,1.5-0.6c0.6,0,1.1,0.2,1.5,0.6c0.4,0.4,0.6,0.9,0.6,1.5C147.2,59.6,147,60.1,146.6,60.5z M146.1,58
			c-0.3-0.3-0.6-0.4-1-0.4s-0.7,0.1-1,0.4c-0.3,0.3-0.4,0.6-0.4,1.1s0.1,0.8,0.4,1.1c0.3,0.3,0.6,0.4,1,0.4c0.4,0,0.7-0.1,1-0.4
			c0.3-0.3,0.4-0.6,0.4-1.1C146.5,58.6,146.4,58.2,146.1,58z"/>
		<path class="st1" d="M148,57.1h0.7v2.6l2.7-2.9V61h-0.7v-2.6l-2.7,2.9V57.1z M148.3,55.4l0.6-0.2c0.1,0.4,0.4,0.6,0.8,0.6
			c0.4,0,0.7-0.2,0.8-0.6l0.6,0.2c-0.1,0.3-0.3,0.5-0.5,0.7c-0.2,0.2-0.5,0.2-0.9,0.2c-0.3,0-0.6-0.1-0.9-0.2
			C148.6,55.9,148.4,55.6,148.3,55.4z"/>
		<path class="st1" d="M154,57.8v-0.7c0.3-0.1,0.7-0.2,1.1-0.2c0.7,0,1.2,0.2,1.6,0.6c0.4,0.4,0.6,0.9,0.6,1.5
			c0,0.6-0.2,1.1-0.6,1.5c-0.4,0.4-0.9,0.6-1.5,0.6c-0.4,0-0.8-0.1-1.1-0.2v-0.7c0.3,0.2,0.7,0.3,1.1,0.3c0.4,0,0.7-0.1,0.9-0.3
			s0.4-0.5,0.5-0.9h-2.1v-0.6h2.1c-0.1-0.3-0.2-0.6-0.5-0.8s-0.6-0.3-0.9-0.3C154.7,57.6,154.3,57.7,154,57.8z"/>
		<path class="st1" d="M160.9,57.1V61h-0.7v-3.3h-1.4v1.8c0,0.5-0.1,0.9-0.3,1.1c-0.2,0.3-0.5,0.4-0.9,0.4c-0.1,0-0.1,0-0.2,0v-0.6
			c0.1,0,0.1,0,0.2,0c0.2,0,0.4-0.1,0.5-0.3c0.1-0.1,0.1-0.4,0.1-0.7v-2.4H160.9z"/>
		<path class="st1" d="M164.8,59.7l0.6,0.3c-0.1,0.3-0.3,0.5-0.5,0.6c-0.4,0.3-0.8,0.5-1.3,0.5c-0.5,0-1-0.2-1.4-0.5
			c-0.4-0.3-0.6-0.9-0.6-1.5c0-0.6,0.2-1.1,0.5-1.5c0.3-0.4,0.8-0.6,1.4-0.6c0.7,0,1.2,0.2,1.5,0.7c0.3,0.4,0.4,0.9,0.4,1.5h-3.1
			c0,0.4,0.1,0.7,0.4,1c0.2,0.2,0.5,0.4,0.9,0.4c0.3,0,0.6-0.1,0.8-0.3C164.6,60.1,164.7,59.9,164.8,59.7z M162.4,58.6h2.3
			c-0.1-0.3-0.2-0.6-0.4-0.7c-0.2-0.2-0.5-0.3-0.8-0.3c-0.3,0-0.5,0.1-0.8,0.3C162.6,58.1,162.4,58.3,162.4,58.6z"/>
		<path class="st1" d="M166.2,57.1h0.7v1.6l1.6-1.6h0.8l-1.7,1.8l1.9,2.2h-0.9l-1.5-1.7l-0.2,0.2V61h-0.7V57.1z"/>
		<path class="st1" d="M172.4,57.7h-1.2V61h-0.7v-3.3h-1.2v-0.6h3.2V57.7z"/>
		<path class="st1" d="M173.5,60.4v2.7h-0.7v-6.1h0.7v0.6c0.3-0.4,0.8-0.6,1.3-0.6c0.6,0,1.1,0.2,1.4,0.6c0.3,0.4,0.5,0.9,0.5,1.5
			c0,0.6-0.2,1.1-0.5,1.5s-0.8,0.6-1.4,0.6S173.9,60.9,173.5,60.4z M174.8,60.5c0.4,0,0.7-0.1,0.9-0.4c0.2-0.3,0.4-0.6,0.4-1
			c0-0.5-0.1-0.8-0.4-1.1c-0.3-0.3-0.6-0.4-0.9-0.4s-0.6,0.1-0.9,0.4c-0.3,0.3-0.4,0.6-0.4,1.1c0,0.4,0.1,0.8,0.4,1
			C174.1,60.4,174.4,60.5,174.8,60.5z"/>
		<path class="st1" d="M180.9,60.5c-0.4,0.4-0.9,0.6-1.5,0.6c-0.6,0-1.1-0.2-1.5-0.6s-0.6-0.9-0.6-1.5c0-0.6,0.2-1.1,0.6-1.5
			s0.9-0.6,1.5-0.6c0.6,0,1.1,0.2,1.5,0.6c0.4,0.4,0.6,0.9,0.6,1.5C181.5,59.6,181.3,60.1,180.9,60.5z M180.3,58
			c-0.3-0.3-0.6-0.4-1-0.4s-0.7,0.1-1,0.4S178,58.6,178,59s0.1,0.8,0.4,1.1c0.3,0.3,0.6,0.4,1,0.4s0.7-0.1,1-0.4s0.4-0.6,0.4-1.1
			C180.8,58.6,180.6,58.2,180.3,58z"/>
		<path class="st1" d="M182.2,61v-3.9h0.7v1.6h1.9v-1.6h0.7V61h-0.7v-1.7h-1.9V61H182.2z"/>
		<path class="st1" d="M186.4,57.1h0.7v2.6l2.7-2.9V61h-0.7v-2.6l-2.7,2.9V57.1z"/>
		<path class="st1" d="M190.8,57.1h0.7v1.6l1.6-1.6h0.8l-1.7,1.8l1.9,2.2h-0.9l-1.5-1.7l-0.2,0.2V61h-0.7V57.1z"/>
		<path class="st1" d="M194.5,57.1h0.7v2.6l2.7-2.9V61h-0.7v-2.6l-2.7,2.9V57.1z"/>
		<path class="st1" d="M200.7,57.1h0.7v2.6l2.7-2.9V61h-0.7v-2.6l-2.7,2.9V57.1z"/>
		<path class="st1" d="M210,57.6v-0.6h0.7V61H210v-0.6c-0.3,0.4-0.8,0.7-1.3,0.7c-0.5,0-1-0.2-1.4-0.6c-0.4-0.4-0.6-0.9-0.6-1.5
			c0-0.6,0.2-1.2,0.6-1.5c0.4-0.4,0.8-0.5,1.4-0.5C209.2,57,209.7,57.2,210,57.6z M208.7,57.6c-0.4,0-0.7,0.1-0.9,0.4
			c-0.3,0.3-0.4,0.6-0.4,1.1c0,0.4,0.1,0.8,0.3,1.1c0.2,0.3,0.5,0.4,0.9,0.4s0.7-0.1,1-0.4c0.2-0.3,0.4-0.6,0.4-1
			c0-0.5-0.1-0.8-0.4-1.1C209.4,57.7,209.1,57.6,208.7,57.6z"/>
		<path class="st1" d="M211.7,57.1h1.5c0.4,0,0.6,0.1,0.8,0.2c0.2,0.2,0.3,0.4,0.3,0.7c0,0.3-0.1,0.6-0.4,0.8
			c0.2,0.1,0.4,0.1,0.5,0.3c0.2,0.2,0.3,0.5,0.3,0.8c0,0.4-0.1,0.7-0.4,0.9c-0.2,0.2-0.5,0.3-0.9,0.3h-1.7V57.1z M212.3,58.7h0.7
			c0.2,0,0.3,0,0.4-0.1c0.1-0.1,0.2-0.2,0.2-0.4c0-0.2-0.1-0.3-0.2-0.4c-0.1-0.1-0.3-0.1-0.6-0.1h-0.6V58.7z M212.3,60.4h0.8
			c0.3,0,0.5,0,0.6-0.1c0.2-0.1,0.2-0.3,0.2-0.4c0-0.2-0.1-0.3-0.2-0.4c-0.1-0.1-0.3-0.1-0.6-0.1h-0.9V60.4z"/>
		<path class="st1" d="M218,57.7h-1.2V61h-0.7v-3.3h-1.2v-0.6h3.2V57.7z"/>
		<path class="st1" d="M221.7,60.5c-0.4,0.4-0.9,0.6-1.5,0.6s-1.1-0.2-1.5-0.6c-0.4-0.4-0.6-0.9-0.6-1.5c0-0.6,0.2-1.1,0.6-1.5
			c0.4-0.4,0.9-0.6,1.5-0.6s1.1,0.2,1.5,0.6c0.4,0.4,0.6,0.9,0.6,1.5C222.3,59.6,222.1,60.1,221.7,60.5z M221.1,58
			c-0.3-0.3-0.6-0.4-1-0.4c-0.4,0-0.7,0.1-1,0.4c-0.3,0.3-0.4,0.6-0.4,1.1s0.1,0.8,0.4,1.1c0.3,0.3,0.6,0.4,1,0.4
			c0.4,0,0.7-0.1,1-0.4c0.3-0.3,0.4-0.6,0.4-1.1C221.6,58.6,221.4,58.2,221.1,58z"/>
		<path class="st1" d="M222.5,61l1-4.2l1.6,3.2l1.6-3.2l1,4.2H227l-0.5-2.4l-1.3,2.7l-1.4-2.7l-0.5,2.4H222.5z"/>
		<path class="st1" d="M231.2,57.6v-0.6h0.7V61h-0.7v-0.6c-0.3,0.4-0.8,0.7-1.3,0.7c-0.5,0-1-0.2-1.4-0.6c-0.4-0.4-0.6-0.9-0.6-1.5
			c0-0.6,0.2-1.2,0.6-1.5c0.4-0.4,0.8-0.5,1.4-0.5C230.4,57,230.9,57.2,231.2,57.6z M229.9,57.6c-0.4,0-0.7,0.1-0.9,0.4
			c-0.3,0.3-0.4,0.6-0.4,1.1c0,0.4,0.1,0.8,0.3,1.1c0.2,0.3,0.5,0.4,0.9,0.4s0.7-0.1,1-0.4c0.2-0.3,0.4-0.6,0.4-1
			c0-0.5-0.1-0.8-0.4-1.1C230.6,57.7,230.3,57.6,229.9,57.6z"/>
		<path class="st1" d="M235.5,57.7h-1.2V61h-0.7v-3.3h-1.2v-0.6h3.2V57.7z"/>
		<path class="st1" d="M235.9,57.1h0.7v2.6l2.7-2.9V61h-0.7v-2.6l-2.7,2.9V57.1z"/>
		<path class="st1" d="M240.7,58.1l-0.5-0.4c0.2-0.2,0.3-0.4,0.5-0.5c0.2-0.1,0.5-0.2,0.9-0.2c0.4,0,0.7,0.1,0.9,0.3
			c0.2,0.2,0.3,0.4,0.3,0.8c0,0.4-0.1,0.6-0.4,0.8c0.2,0,0.3,0.1,0.5,0.3c0.2,0.2,0.3,0.4,0.3,0.7c0,0.4-0.2,0.8-0.5,1
			c-0.3,0.2-0.7,0.3-1.1,0.3c-0.4,0-0.8-0.1-1.1-0.3c-0.2-0.2-0.4-0.4-0.5-0.7l0.6-0.2c0.1,0.2,0.2,0.3,0.4,0.4
			c0.2,0.1,0.4,0.2,0.6,0.2c0.3,0,0.5-0.1,0.7-0.2c0.2-0.1,0.3-0.3,0.3-0.6c0-0.2-0.1-0.4-0.2-0.5c-0.1-0.1-0.3-0.1-0.6-0.1h-0.4
			v-0.6h0.3c0.2,0,0.4,0,0.5-0.1c0.1-0.1,0.2-0.2,0.2-0.4c0-0.2-0.1-0.3-0.2-0.4c-0.1-0.1-0.3-0.1-0.5-0.1c-0.2,0-0.4,0.1-0.5,0.2
			C240.9,57.8,240.8,57.9,240.7,58.1z"/>
		<path class="st1" d="M246.9,57.6v-0.6h0.7V61h-0.7v-0.6c-0.3,0.4-0.8,0.7-1.3,0.7c-0.5,0-1-0.2-1.4-0.6c-0.4-0.4-0.6-0.9-0.6-1.5
			c0-0.6,0.2-1.2,0.6-1.5c0.4-0.4,0.8-0.5,1.4-0.5C246.2,57,246.6,57.2,246.9,57.6z M245.7,57.6c-0.4,0-0.7,0.1-0.9,0.4
			c-0.3,0.3-0.4,0.6-0.4,1.1c0,0.4,0.1,0.8,0.3,1.1c0.2,0.3,0.5,0.4,0.9,0.4c0.4,0,0.7-0.1,1-0.4c0.2-0.3,0.4-0.6,0.4-1
			c0-0.5-0.1-0.8-0.4-1.1C246.3,57.7,246,57.6,245.7,57.6z"/>
		<path class="st1" d="M248.6,61v-3.9h0.7v3.3h1.8v-3.3h0.7v3.3h0.6V62h-0.6v-1H248.6z"/>
		<path class="st1" d="M252.8,57.1h0.7v2.6l2.7-2.9V61h-0.7v-2.6l-2.7,2.9V57.1z"/>
		<path class="st1" d="M257.1,57.1h0.7v2.6l2.7-2.9V61h-0.7v-2.6l-2.7,2.9V57.1z"/>
	</g>
</g>
</svg>
