<svg id="Group_207" data-name="Group 207" xmlns="http://www.w3.org/2000/svg" width="86.24" height="127.578" viewBox="0 0 86.24 127.578">
  <g id="Group_125" data-name="Group 125" transform="translate(0)">
    <g id="Ellipse_81" data-name="Ellipse 81" transform="translate(16.871)" fill="none" stroke="#a89365" stroke-width="4">
      <ellipse cx="24.372" cy="24.372" rx="24.372" ry="24.372" stroke="none"/>
      <ellipse cx="24.372" cy="24.372" rx="22.372" ry="22.372" fill="none"/>
    </g>
    <g id="Subtraction_12" data-name="Subtraction 12" transform="translate(0 52.492)" fill="none">
      <path d="M86.24,75.086H0V21A21,21,0,0,1,21,0H65.239a21,21,0,0,1,21,21V75.085Z" stroke="none"/>
      <path d="M 82.23979949951172 71.085205078125 L 82.23979949951172 21.00060272216797 C 82.23979949951172 16.45958709716797 80.47142791748047 12.19035911560059 77.26044464111328 8.97935962677002 C 74.04944610595703 5.768373489379883 69.78021240234375 4.000002384185791 65.23919677734375 4.000002384185791 L 20.99970054626465 4.000002384185791 C 16.45878601074219 4.000002384185791 12.18975734710693 5.768345355987549 8.979000091552734 8.979273796081543 C 5.768242835998535 12.19023036956787 3.999999761581421 16.45948791503906 3.999999761581421 21.00060272216797 L 3.999999761581421 71.085205078125 L 82.23979949951172 71.085205078125 M 86.23979949951172 75.08620452880859 L 86.23979949951172 75.085205078125 L -2.502441418528178e-07 75.085205078125 L -2.502441418528178e-07 21.00060272216797 C -2.502441418528178e-07 15.39107322692871 2.184285402297974 10.1173734664917 6.150485515594482 6.150930881500244 C 10.11675643920898 2.184445142745972 15.39029979705811 2.264404201923753e-06 20.99970054626465 2.264404201923753e-06 L 65.23919677734375 2.264404201923753e-06 C 70.84865570068359 2.264404201923753e-06 76.12236785888672 2.184445142745972 80.08887481689453 6.150930881500244 C 84.05535888671875 10.11743068695068 86.23979949951172 15.39114475250244 86.23979949951172 21.00060272216797 L 86.23979949951172 75.085205078125 L 86.23979949951172 75.08620452880859 Z" stroke="none" fill="#a89365"/>
    </g>
  </g>
  <g id="Rectangle_133" data-name="Rectangle 133" transform="translate(30.632 53.297)" fill="none" stroke="#a89365" stroke-width="4">
    <rect width="21.946" height="12.54" stroke="none"/>
    <rect x="2" y="2" width="17.946" height="8.54" fill="none"/>
  </g>
  <path id="Path_441" data-name="Path 441" d="M21715.555-7617.342l8.543,29.082-10.883,12.756-12.75-12.756,7.746-29.082" transform="translate(-21670.336 7683.099)" fill="none" stroke="#a89365" stroke-width="4"/>
</svg>
