<svg xmlns="http://www.w3.org/2000/svg" width="27.508" height="50.7" viewBox="0 0 27.508 50.7">
  <g id="advantages-item__icon" transform="translate(-1590.634 -732.001)">
    <g id="Group_125" data-name="Group 125" transform="translate(1590.634 732.001)">
      <g id="Ellipse_81" data-name="Ellipse 81" transform="translate(5.381)" fill="none" stroke="#a89365" stroke-width="2">
        <ellipse cx="7.774" cy="7.774" rx="7.774" ry="7.774" stroke="none"/>
        <ellipse cx="7.774" cy="7.774" rx="6.774" ry="6.774" fill="none"/>
      </g>
      <g id="Subtraction_12" data-name="Subtraction 12" transform="translate(0 16.743)" fill="none">
        <path d="M27.508,33.957H0v-20.2A13.754,13.754,0,0,1,23.479,4.028a13.664,13.664,0,0,1,4.028,9.725v20.2Z" stroke="none"/>
        <path d="M 25.50760078430176 31.95700073242188 L 25.50760078430176 13.75380039215088 C 25.50760078430176 10.61425018310547 24.28499031066895 7.662620544433594 22.06499099731445 5.442610263824463 C 19.84498023986816 3.222610473632813 16.89335060119629 2.000000476837158 13.75380039215088 2.000000476837158 C 10.61425018310547 2.000000476837158 7.662620544433594 3.222610473632813 5.442610263824463 5.442610263824463 C 3.222610473632813 7.662620544433594 2.000000476837158 10.61425018310547 2.000000476837158 13.75380039215088 L 2.000000476837158 31.95700073242188 L 25.50760078430176 31.95700073242188 M 27.50760078430176 33.95700073242188 L 27.50660133361816 33.95700073242188 L 3.921508664461726e-07 33.95700073242188 L 3.921508664461726e-07 13.75380039215088 C 3.921508664461726e-07 10.08003044128418 1.430650353431702 6.626150131225586 4.028400421142578 4.028400421142578 C 6.626150608062744 1.430650353431702 10.08003044128418 3.662109406832315e-07 13.75380039215088 3.662109406832315e-07 C 17.42757034301758 3.662109406832315e-07 20.88145065307617 1.430650353431702 23.47920036315918 4.028400421142578 C 26.07695007324219 6.626150131225586 27.50760078430176 10.08003044128418 27.50760078430176 13.75380039215088 L 27.50760078430176 33.95600128173828 L 27.50760078430176 33.95700073242188 Z" stroke="none" fill="#a89365"/>
      </g>
    </g>
    <g id="Rectangle_133" data-name="Rectangle 133" transform="translate(1600.405 749.001)" fill="none" stroke="#a89365" stroke-width="2">
      <rect width="7" height="4" stroke="none"/>
      <rect x="1" y="1" width="5" height="2" fill="none"/>
    </g>
    <path id="Path_441" data-name="Path 441" d="M21705.277-7617.342l2.725,9.276-3.471,4.069-4.068-4.069,2.473-9.276" transform="translate(-20100.219 8370.317)" fill="none" stroke="#a89365" stroke-width="2"/>
  </g>
</svg>
