<svg xmlns="http://www.w3.org/2000/svg" xmlns:xlink="http://www.w3.org/1999/xlink" width="271" height="271" viewBox="0 0 271 271">
  <defs>
    <clipPath id="clip-path">
      <rect id="Rectangle_279" data-name="Rectangle 279" width="271" height="271" transform="translate(-2285 9423)" fill="#fff"/>
    </clipPath>
  </defs>
  <g id="manager" transform="translate(2285 -9423)" clip-path="url(#clip-path)">
    <g id="Group_207" data-name="Group 207" transform="translate(-2247.095 9423)">
      <g id="Group_125" data-name="Group 125" transform="translate(0 0)">
        <g id="Ellipse_81" data-name="Ellipse 81" transform="translate(38.002)" fill="none" stroke="#a89365" stroke-width="7">
          <circle cx="54.898" cy="54.898" r="54.898" stroke="none"/>
          <circle cx="54.898" cy="54.898" r="51.398" fill="none"/>
        </g>
        <g id="Rectangle_282" data-name="Rectangle 282" transform="translate(3.095 114)" fill="none" stroke="#a89365" stroke-width="7">
          <path d="M62,0h58a62,62,0,0,1,62,62v93a0,0,0,0,1,0,0H0a0,0,0,0,1,0,0V62A62,62,0,0,1,62,0Z" stroke="none"/>
          <path d="M62,3.5h58A58.5,58.5,0,0,1,178.5,62v86a3.5,3.5,0,0,1-3.5,3.5H7A3.5,3.5,0,0,1,3.5,148V62A58.5,58.5,0,0,1,62,3.5Z" fill="none"/>
        </g>
      </g>
      <g id="Rectangle_133" data-name="Rectangle 133" transform="translate(68.998 120.051)" fill="none" stroke="#a89365" stroke-width="7">
        <rect width="49.433" height="28.246" stroke="none"/>
        <rect x="3.5" y="3.5" width="42.433" height="21.246" fill="none"/>
      </g>
      <path id="Path_441" data-name="Path 441" d="M46129.938-16180.655l19.242,66.82-24.516,29.309-28.719-29.309,17.445-66.82" transform="translate(-46027.98 16326.887)" fill="none" stroke="#a89365" stroke-width="7"/>
    </g>
  </g>
</svg>
