<?xml version="1.0" encoding="utf-8"?>
<!-- Generator: Adobe Illustrator 23.1.0, SVG Export Plug-In . SVG Version: 6.00 Build 0)  -->
<svg version="1.1" id="Слой_1" xmlns="http://www.w3.org/2000/svg" xmlns:xlink="http://www.w3.org/1999/xlink" x="0px" y="0px"
	 viewBox="0 0 192 155.6" style="enable-background:new 0 0 192 155.6;" xml:space="preserve">
<style type="text/css">
	.st0{fill:none;stroke:#B39B6B;stroke-width:4;}
	.st1{fill:none;stroke:#B39B6B;stroke-width:4;stroke-linejoin:round;}
	.st2{fill:none;stroke:#A89365;stroke-width:2;stroke-miterlimit:10;}
	.st3{fill:#A89365;}
</style>
<g id="solution-item__img" transform="translate(-1476 -1066.38)">
	<g id="smart-home_1_" transform="translate(1478 1068)">
		<path id="Path_388" class="st0" d="M23.6,68.4V152h141.6V68.4"/>
		<path id="Path_389" class="st1" d="M94.4,2.5l92.4,66.9v11.8l-92.4-59L2,81.2V69.4l31.5-22.8 M94.4,2.5L53.1,32.4V16.3H33.5v30.3
			 M94.4,2.5l-61,44.1"/>
		<path id="Rectangle_124" class="st0" d="M31.5,4.5h23.6c1.1,0,2,0.9,2,2v7.9c0,1.1-0.9,2-2,2H31.5c-1.1,0-2-0.9-2-2V6.5
			C29.5,5.4,30.4,4.5,31.5,4.5z"/>
		<line id="Line_68" class="st0" x1="23.6" y1="68.4" x2="165.2" y2="68.4"/>
		<circle id="Ellipse_78" class="st0" cx="94.4" cy="47.8" r="7.9"/>
	</g>
	<g id="Group_121" transform="translate(1535.909 1142.427)">
		<path id="Path_426" class="st2" d="M47.1,41.8c-0.2,3.1-2.9,5.5-6,5.3c-3.1-0.2-5.5-2.9-5.3-6c0.2-3,2.7-5.3,5.7-5.3
			C44.8,35.9,47.3,38.6,47.1,41.8z"/>
		<line id="Line_72" class="st2" x1="26.8" y1="41.6" x2="27" y2="19.3"/>
		<line id="Line_73" class="st2" x1="26.1" y1="19.6" x2="48.3" y2="19.7"/>
		<line id="Line_74" class="st2" x1="47.3" y1="18.8" x2="47.1" y2="40.3"/>
		<line id="Line_75" class="st2" x1="27.2" y1="24.8" x2="46.9" y2="25"/>
		<g id="Group_120">
			<path id="Path_425" class="st2" d="M26.8,41.6c-0.2,3.1-2.9,5.5-6,5.3s-5.5-2.9-5.3-6c0.2-3,2.7-5.3,5.7-5.3
				C24.4,35.7,26.9,38.4,26.8,41.6z"/>
			<path id="Path_433" class="st3" d="M1,1.3v17.1h12.8c0.4-0.8,0.9-1.5,1.5-2.2l-4.7-4.7c-0.5,0.3-1,0.4-1.6,0.4
				C7.4,12,5.9,10.7,5.8,9C5.7,7.3,7,5.9,8.7,5.8C10.4,5.7,11.9,7,12,8.7c0,0,0,0.1,0,0.1c0,0.6-0.2,1.3-0.6,1.8l4.7,4.7
				c0.7-0.7,1.5-1.2,2.4-1.7V1.3H1z"/>
			<path id="Path_432" class="st3" d="M1,68.6V51.4h12.8c0.4,0.8,0.9,1.5,1.5,2.2l-4.7,4.7c-0.5-0.3-1-0.4-1.6-0.4
				c-1.7-0.1-3.1,1.2-3.2,2.9C5.7,62.5,7,64,8.7,64.1s3.1-1.2,3.2-2.9c0,0,0-0.1,0-0.1c0-0.6-0.2-1.3-0.6-1.8l4.7-4.7
				c0.7,0.7,1.5,1.2,2.4,1.7v12.3H1z"/>
			<path id="Path_434" class="st3" d="M71.6,1.3v17.1H58.7c-0.4-0.8-0.9-1.5-1.5-2.2l4.7-4.7c0.5,0.3,1,0.4,1.6,0.4
				c1.7,0.1,3.1-1.2,3.2-2.9c0.1-1.7-1.2-3.1-2.9-3.2c-1.7-0.1-3.1,1.2-3.2,2.9c0,0,0,0.1,0,0.1c0,0.6,0.2,1.3,0.6,1.8l-4.7,4.7
				c-0.7-0.6-1.5-1.2-2.4-1.7V1.3H71.6z"/>
			<path id="Path_431" class="st3" d="M71.6,68.6V51.4H58.7c-0.4,0.8-0.9,1.5-1.5,2.2l4.7,4.7c0.5-0.3,1-0.4,1.6-0.4
				c1.7-0.1,3.1,1.2,3.2,2.9c0.1,1.7-1.2,3.1-2.9,3.2c-1.7,0.1-3.1-1.2-3.2-2.9c0,0,0-0.1,0-0.1c0-0.6,0.2-1.3,0.6-1.8l-4.7-4.7
				c-0.7,0.6-1.5,1.2-2.4,1.7v12.3H71.6z"/>
		</g>
	</g>
</g>
<polyline class="st0" points="91.8,7.5 96.4,3.7 101.4,7.7 "/>
</svg>
