<svg xmlns="http://www.w3.org/2000/svg" width="192" height="155.62" viewBox="0 0 192 155.62">
  <g id="solution-item__img" transform="translate(-1476 -1066.38)">
    <g id="smart-home_1_" data-name="smart-home (1)" transform="translate(1478 1068)">
      <path id="Path_388" data-name="Path 388" d="M24,69v85H168V69" transform="translate(-2 -2)" fill="none" stroke="#b39b6b" stroke-width="4"/>
      <path id="Path_389" data-name="Path 389" d="M96,2l94,68V82L96,22,2,82V70L34,46.851M96,2,54,32.383V16H34V46.851M96,2,34,46.851" transform="translate(-2 -2)" fill="none" stroke="#b39b6b" stroke-linejoin="round" stroke-width="4"/>
      <rect id="Rectangle_124" data-name="Rectangle 124" width="28" height="12" rx="2" transform="translate(28 2)" fill="none" stroke="#b39b6b" stroke-width="4"/>
      <line id="Line_68" data-name="Line 68" x2="144" transform="translate(22 67)" fill="none" stroke="#b39b6b" stroke-width="4"/>
      <circle id="Ellipse_78" data-name="Ellipse 78" cx="8" cy="8" r="8" transform="translate(86 38)" fill="none" stroke="#b39b6b" stroke-width="4"/>
    </g>
    <g id="Group_121" data-name="Group 121" transform="translate(1535.909 1142.427)">
      <path id="Path_426" data-name="Path 426" d="M100.186,90.2a5.751,5.751,0,1,1-5.691-6.1A5.9,5.9,0,0,1,100.186,90.2Z" transform="translate(-53.29 -49.018)" fill="none" stroke="#a89365" stroke-miterlimit="10" stroke-width="2"/>
      <line id="Line_72" data-name="Line 72" y1="22.661" x2="0.207" transform="translate(26.201 18.32)" fill="none" stroke="#a89365" stroke-miterlimit="10" stroke-width="2"/>
      <line id="Line_73" data-name="Line 73" x2="22.557" y2="0.103" transform="translate(25.477 18.63)" fill="none" stroke="#a89365" stroke-miterlimit="10" stroke-width="2"/>
      <line id="Line_74" data-name="Line 74" x1="0.207" y2="21.833" transform="translate(46.896 17.803)" fill="none" stroke="#a89365" stroke-miterlimit="10" stroke-width="2"/>
      <line id="Line_75" data-name="Line 75" x2="20.074" y2="0.207" transform="translate(26.615 23.907)" fill="none" stroke="#a89365" stroke-miterlimit="10" stroke-width="2"/>
      <g id="Group_120" data-name="Group 120">
        <path id="Path_425" data-name="Path 425" d="M80.186,90a5.751,5.751,0,1,1-5.691-6.1A5.9,5.9,0,0,1,80.186,90Z" transform="translate(-53.985 -49.024)" fill="none" stroke="#a89365" stroke-miterlimit="10" stroke-width="2"/>
        <path id="Path_433" data-name="Path 433" d="M55,50.7V68.1H68.052a13.558,13.558,0,0,1,1.486-2.228L64.762,61.1a2.763,2.763,0,0,1-1.592.424,3.133,3.133,0,1,1,2.971-3.183,2.881,2.881,0,0,1-.637,1.8l4.775,4.775a12.59,12.59,0,0,1,2.441-1.7V50.7Z" transform="translate(-55 -50.7)" fill="#a89365"/>
        <path id="Path_432" data-name="Path 432" d="M55,68.1V50.7H68.052a13.558,13.558,0,0,0,1.486,2.228L64.762,57.7a2.763,2.763,0,0,0-1.592-.424,3.133,3.133,0,1,0,2.971,3.183,2.881,2.881,0,0,0-.637-1.8l4.775-4.775a12.59,12.59,0,0,0,2.441,1.7V68.1Z" transform="translate(-55 0.3)" fill="#a89365"/>
        <path id="Path_434" data-name="Path 434" d="M72.721,50.7V68.1H59.669a13.558,13.558,0,0,0-1.486-2.228L62.958,61.1a2.763,2.763,0,0,0,1.592.424,3.133,3.133,0,1,0-2.971-3.183,2.881,2.881,0,0,0,.637,1.8l-4.775,4.775A12.59,12.59,0,0,0,55,63.221V50.7Z" transform="translate(-1 -50.7)" fill="#a89365"/>
        <path id="Path_431" data-name="Path 431" d="M72.721,68.1V50.7H59.669a13.558,13.558,0,0,1-1.486,2.228L62.958,57.7a2.763,2.763,0,0,1,1.592-.424,3.132,3.132,0,1,1-2.971,3.183,2.881,2.881,0,0,1,.637-1.8l-4.775-4.775A12.59,12.59,0,0,1,55,55.581V68.1Z" transform="translate(-1 0.3)" fill="#a89365"/>
      </g>
    </g>
  </g>
</svg>
