<svg xmlns="http://www.w3.org/2000/svg" xmlns:xlink="http://www.w3.org/1999/xlink" width="271" height="271" viewBox="0 0 271 271">
  <defs>
    <clipPath id="clip-path">
      <rect id="Rectangle_278" data-name="Rectangle 278" width="271" height="271" transform="translate(-2285 8747)" fill="#fff"/>
    </clipPath>
  </defs>
  <g id="check-marks" transform="translate(2285 -8747)" clip-path="url(#clip-path)">
    <g id="Group_198" data-name="Group 198" transform="translate(-4225.765 8338.31)">
      <g id="Group_42" data-name="Group 42" transform="translate(1996.649 489.778)">
        <g id="Group_41" data-name="Group 41" transform="translate(0)">
          <path id="Union_7" data-name="Union 7" d="M15.839,0,8.64,15.828ZM0,7.04l8.64,8.782Z" transform="translate(3.293 0) rotate(12.007)" fill="none" stroke="#a89365" stroke-linejoin="round" stroke-width="7"/>
          <path id="Union_8" data-name="Union 8" d="M15.839,0,8.64,15.828ZM0,7.04l8.64,8.782Z" transform="translate(3.293 39.588) rotate(12.007)" fill="none" stroke="#a89365" stroke-linejoin="round" stroke-width="7"/>
          <path id="Union_9" data-name="Union 9" d="M15.839,0,8.64,15.828ZM0,7.04l8.64,8.782Z" transform="translate(3.293 79.177) rotate(12.007)" fill="none" stroke="#a89365" stroke-linejoin="round" stroke-width="7"/>
          <line id="Line_27" data-name="Line 27" x2="95.012" transform="translate(37.841 11.512)" fill="none" stroke="#a89365" stroke-width="7"/>
          <line id="Line_28" data-name="Line 28" x2="95.012" transform="translate(37.841 51.1)" fill="none" stroke="#a89365" stroke-width="7"/>
          <line id="Line_31" data-name="Line 31" x2="95.012" transform="translate(37.841 90.688)" fill="none" stroke="#a89365" stroke-width="7"/>
        </g>
      </g>
      <path id="Union_5" data-name="Union 5" d="M96.314,0c4.625,0,8.376,4.487,8.376,10.021v5.011c0,5.534-3.75,10.021-8.376,10.021H8.376C3.75,25.053,0,20.566,0,15.032V10.021C0,4.487,3.75,0,8.376,0Z" transform="translate(2011.265 425.161)" fill="rgba(0,0,0,0)" stroke="#a89365" stroke-width="6.941"/>
      <path id="Union_10" data-name="Union 10" d="M147.848,220.6l-133.732.055A14.116,14.116,0,0,1,0,206.539V29.718A14.116,14.116,0,0,1,14.116,15.6H32.691a8.744,8.744,0,0,1-.413-2.666V8.627A8.561,8.561,0,0,1,40.78,0h89.192a8.561,8.561,0,0,1,8.495,8.627V12.94a8.744,8.744,0,0,1-.413,2.666h25.931A14.116,14.116,0,0,1,178.1,29.722l-.008,160.955c9.979,2.679,16.965,12.326,17.084,22.658a23.348,23.348,0,0,1-23.745,22.92c-10.056.1-20.145-6.2-23.584-15.655Z" transform="translate(1978.292 426.364)" fill="none" stroke="#a89365" stroke-width="7"/>
      <path id="Union_6" data-name="Union 6" d="M8.636,15.828,0,7.035l8.636,8.793L15.839,0l-7.2,15.828Z" transform="translate(2142.9 632.059) rotate(12.007)" fill="none" stroke="#a89365" stroke-linejoin="round" stroke-width="1.735"/>
      <path id="Path_486" data-name="Path 486" d="M23.753,0A23.753,23.753,0,1,1,0,23.753,23.753,23.753,0,0,1,23.753,0Z" transform="translate(2125.964 616.32)" fill="rgba(0,0,0,0)" stroke="#a89365" stroke-width="6.941"/>
    </g>
  </g>
</svg>
