<svg xmlns="http://www.w3.org/2000/svg" width="66.75" height="52.83" viewBox="0 0 66.75 52.83">
  <g id="advantages-item__icon" transform="translate(-832.861 -723.001)">
    <g id="Union_20" data-name="Union 20" transform="translate(832.861 723.001)" fill="none">
      <path d="M48.074,52.83H19.411V45.673H0v-18.2a12.4,12.4,0,0,1,23.427-5.644q.09-.093.182-.185a14.332,14.332,0,0,1,19.971-.289A12.46,12.46,0,0,1,45.6,18.712,12.39,12.39,0,0,1,66.75,27.473v18.2H48.074v7.156h0ZM25.018,8.1a8.1,8.1,0,1,1,8.1,8.1A8.1,8.1,0,0,1,25.018,8.1ZM46.817,7a7,7,0,1,1,7,7A7,7,0,0,1,46.817,7ZM4.847,7a7,7,0,1,1,7,7A7,7,0,0,1,4.847,7Z" stroke="none"/>
      <path d="M 46.07440185546875 50.83000183105469 L 46.07440185546875 45.67320251464844 L 46.07440185546875 43.67320251464844 L 48.07440185546875 43.67320251464844 L 64.75030517578125 43.67320251464844 L 64.75030517578125 27.4734001159668 C 64.75030517578125 24.69850158691406 63.66951370239258 22.08909034729004 61.70756149291992 20.12639045715332 C 59.74431228637695 18.16389083862305 57.13490295410156 17.08310127258301 54.36000442504883 17.08310127258301 C 51.58510208129883 17.08310127258301 48.97569274902344 18.16389083862305 47.01299285888672 20.12584114074707 C 46.34707260131836 20.79202079772949 45.77658081054688 21.53861999511719 45.3173828125 22.34491157531738 L 44.05686187744141 24.55817031860352 L 42.20573425292969 22.80868148803711 C 39.9116325378418 20.64054107666016 36.90610122680664 19.44650077819824 33.74280166625977 19.44650077819824 C 30.4481029510498 19.44650077819824 27.35144233703613 20.7291202545166 25.02278327941895 23.05854034423828 C 24.96992301940918 23.11139106750488 24.9174919128418 23.16477012634277 24.86570167541504 23.21839141845703 L 22.92317199707031 25.22967147827148 L 21.64741325378418 22.74148178100586 C 21.15510177612305 21.78131103515625 20.51245307922363 20.90128135681152 19.73786354064941 20.12639045715332 C 17.77461242675781 18.16389083862305 15.16520214080811 17.08310127258301 12.39030265808105 17.08310127258301 C 9.615402221679688 17.08310127258301 7.005992412567139 18.16389083862305 5.04329252243042 20.12584114074707 C 3.080792665481567 22.08909034729004 2.00000262260437 24.69850158691406 2.00000262260437 27.4734001159668 L 2.00000262260437 43.67320251464844 L 19.41120338439941 43.67320251464844 L 21.41120338439941 43.67320251464844 L 21.41120338439941 45.67320251464844 L 21.41120338439941 50.83000183105469 L 46.07440185546875 50.83000183105469 M 33.11910247802734 14.20090103149414 C 36.48265075683594 14.20090103149414 39.21910095214844 11.46405124664307 39.21910095214844 8.100001335144043 C 39.21910095214844 4.736451148986816 36.48265075683594 2.000000953674316 33.11910247802734 2.000000953674316 C 29.75505256652832 2.000000953674316 27.01820182800293 4.736451148986816 27.01820182800293 8.100001335144043 C 27.01820182800293 11.46405124664307 29.75505256652832 14.20090103149414 33.11910247802734 14.20090103149414 M 53.82090377807617 12.0058012008667 C 56.57951354980469 12.0058012008667 58.82380294799805 9.761510848999023 58.82380294799805 7.002901077270508 C 58.82380294799805 4.244290828704834 56.57951354980469 2.000000953674316 53.82090377807617 2.000000953674316 C 51.06180191040039 2.000000953674316 48.81710433959961 4.244290828704834 48.81710433959961 7.002901077270508 C 48.81710433959961 9.761510848999023 51.06180191040039 12.0058012008667 53.82090377807617 12.0058012008667 M 11.85120296478271 12.0058012008667 C 14.60981273651123 12.0058012008667 16.85410308837891 9.761510848999023 16.85410308837891 7.002901077270508 C 16.85410308837891 4.244290828704834 14.60981273651123 2.000000953674316 11.85120296478271 2.000000953674316 C 9.092103004455566 2.000000953674316 6.847402572631836 4.244290828704834 6.847402572631836 7.002901077270508 C 6.847402572631836 9.761510848999023 9.092103004455566 12.0058012008667 11.85120296478271 12.0058012008667 M 48.07440185546875 52.83000183105469 L 48.07350158691406 52.83000183105469 L 19.41120338439941 52.83000183105469 L 19.41120338439941 45.67320251464844 L 2.587890548966243e-06 45.67320251464844 L 2.587890548966243e-06 27.4734001159668 C 2.587890548966243e-06 24.16410064697266 1.288802623748779 21.05280113220215 3.628802537918091 18.71190071105957 C 5.96970272064209 16.37190055847168 9.081002235412598 15.08310127258301 12.39030265808105 15.08310127258301 C 15.6996021270752 15.08310127258301 18.8109016418457 16.37190055847168 21.15180206298828 18.71190071105957 C 22.08100318908691 19.64146041870117 22.84431266784668 20.69231033325195 23.4271125793457 21.82898139953613 C 23.48701286315918 21.76696014404297 23.54766273498535 21.70522117614746 23.60880279541016 21.64410018920898 C 26.31510353088379 18.9369010925293 29.9142017364502 17.44650077819824 33.74280166625977 17.44650077819824 C 37.43196105957031 17.44650077819824 40.90886306762695 18.83115005493164 43.57947158813477 21.35512161254883 C 44.12377166748047 20.39942169189453 44.79984283447266 19.5108699798584 45.59850311279297 18.71190071105957 C 47.93940353393555 16.37190055847168 51.05070114135742 15.08310127258301 54.36000442504883 15.08310127258301 C 57.66930389404297 15.08310127258301 60.78060150146484 16.37190055847168 63.12150192260742 18.71190071105957 C 65.46150207519531 21.05280113220215 66.75030517578125 24.16410064697266 66.75030517578125 27.4734001159668 L 66.75030517578125 45.67230224609375 L 66.75030517578125 45.67320251464844 L 66.74940490722656 45.67320251464844 L 48.07440185546875 45.67320251464844 L 48.07440185546875 52.8291015625 L 48.07440185546875 52.83000183105469 Z M 33.11910247802734 16.20090103149414 C 28.64520263671875 16.20090103149414 25.01820182800293 12.57390117645264 25.01820182800293 8.100001335144043 C 25.01820182800293 3.62700080871582 28.64520263671875 9.155273232863692e-07 33.11910247802734 9.155273232863692e-07 C 37.59300231933594 9.155273232863692e-07 41.21910095214844 3.62700080871582 41.21910095214844 8.100001335144043 C 41.21910095214844 12.57390117645264 37.59300231933594 16.20090103149414 33.11910247802734 16.20090103149414 Z M 53.82090377807617 14.0058012008667 C 49.95270156860352 14.0058012008667 46.81710433959961 10.87110137939453 46.81710433959961 7.002901077270508 C 46.81710433959961 3.135600805282593 49.95270156860352 9.155273232863692e-07 53.82090377807617 9.155273232863692e-07 C 57.68820190429688 9.155273232863692e-07 60.82380294799805 3.135600805282593 60.82380294799805 7.002901077270508 C 60.82380294799805 10.87110137939453 57.68820190429688 14.0058012008667 53.82090377807617 14.0058012008667 Z M 11.85120296478271 14.0058012008667 C 7.983002662658691 14.0058012008667 4.847402572631836 10.87110137939453 4.847402572631836 7.002901077270508 C 4.847402572631836 3.135600805282593 7.983002662658691 9.155273232863692e-07 11.85120296478271 9.155273232863692e-07 C 15.71850299835205 9.155273232863692e-07 18.85410308837891 3.135600805282593 18.85410308837891 7.002901077270508 C 18.85410308837891 10.87110137939453 15.71850299835205 14.0058012008667 11.85120296478271 14.0058012008667 Z" stroke="none" fill="#a89365"/>
    </g>
    <g id="Rectangle_133" data-name="Rectangle 133" transform="translate(862.002 741.13)" fill="none" stroke="#a89365" stroke-width="2">
      <rect width="8" height="4" stroke="none"/>
      <rect x="1" y="1" width="6" height="2" fill="none"/>
    </g>
    <path id="Path_441" data-name="Path 441" d="M21705.48-7617.342l2.838,9.666-3.615,4.239-4.24-4.239,2.576-9.666" transform="translate(-20838.176 8362.198)" fill="none" stroke="#a89365" stroke-width="2"/>
  </g>
</svg>
