<svg xmlns="http://www.w3.org/2000/svg" width="75.249" height="100.806" viewBox="0 0 75.249 100.806">
  <g id="projects-item__icon" transform="translate(-0.022 2.438) rotate(-1)">
    <path id="Path_217" data-name="Path 217" d="M43.035,11.691,21.045,0,16.816,2.637,27.662,20,15.075,27.861,4.229,10.5,0,13.134.846,38.01,22.786,49.7l3.881-2.388L55.423,93.382a4.216,4.216,0,0,0,5.821,1.343l6.219-3.881a4.217,4.217,0,0,0,1.343-5.821L40.049,38.955l3.881-2.388Z" transform="translate(3.134 0)" fill="none" stroke="#b29b6b" stroke-miterlimit="10" stroke-width="2"/>
    <g id="Group_45" data-name="Group 45" transform="translate(0 68.407)">
      <path id="Path_218" data-name="Path 218" d="M25.074,0H8.358L0,14.478,8.358,28.955H25.074l8.358-14.478Z" fill="none" stroke="#b29b6b" stroke-miterlimit="10" stroke-width="2"/>
      <circle id="Ellipse_30" data-name="Ellipse 30" cx="9.552" cy="9.552" r="9.552" transform="translate(7.164 4.925)" fill="none" stroke="#b29b6b" stroke-miterlimit="10" stroke-width="2"/>
    </g>
  </g>
</svg>
