<svg xmlns="http://www.w3.org/2000/svg" width="147.002" height="98.157" viewBox="0 0 147.002 98.157">
  <g id="projects-item__icon" transform="translate(-1.883 0.051)">
    <path id="Path_480" data-name="Path 480" d="M50.4,90.2a5.717,5.717,0,0,1-7.7-2.6h0a5.717,5.717,0,0,1,2.6-7.7L76.2,64.4" fill="none" stroke="#a89365" stroke-miterlimit="10" stroke-width="2"/>
    <line id="Line_94" data-name="Line 94" y1="14.9" x2="28" transform="translate(50 75.5)" fill="none" stroke="#a89365" stroke-miterlimit="10" stroke-width="2"/>
    <path id="Path_481" data-name="Path 481" d="M65.8,56.1,34.9,71.6a5.8,5.8,0,0,0-2.6,7.7h0c1.4,2.8,4.7,3.2,7.7,2.6l4.7-1.6" fill="none" stroke="#a89365" stroke-miterlimit="10" stroke-width="2"/>
    <path id="Path_482" data-name="Path 482" d="M50,50.5,33.4,58.6a5.8,5.8,0,0,0-2.6,7.7h0c1.4,2.8,4.7,3.2,7.7,2.6l4.7-1.6" fill="none" stroke="#a89365" stroke-miterlimit="10" stroke-width="2"/>
    <path id="Path_483" data-name="Path 483" d="M78,75.5,58.9,86.2a5.8,5.8,0,0,0-2.6,7.7h0A5.8,5.8,0,0,0,64,96.5s38-18.9,41-20.9,17-11,24-18" fill="none" stroke="#a89365" stroke-miterlimit="10" stroke-width="2"/>
    <path id="Path_484" data-name="Path 484" d="M38,9.5a31.1,31.1,0,0,0,12,0c5-1,10-2,15,0s35,12,35,12c2,18-28,3-28,3s-3,14-13,15a62.719,62.719,0,0,1-18-1" fill="none" stroke="#a89365" stroke-miterlimit="10" stroke-width="2"/>
    <rect id="Rectangle_155" data-name="Rectangle 155" width="21.9" height="52.5" transform="matrix(0.875, -0.484, 0.484, 0.875, 102.956, 11.906)" fill="none" stroke="#a89365" stroke-miterlimit="10" stroke-width="2"/>
    <rect id="Rectangle_156" data-name="Rectangle 156" width="21.9" height="52.5" transform="translate(17.711 3.596) rotate(16.135)" fill="none" stroke="#a89365" stroke-miterlimit="10" stroke-width="2"/>
  </g>
</svg>
