<svg xmlns="http://www.w3.org/2000/svg" width="122.289" height="98.001" viewBox="0 0 122.289 98.001">
  <g id="projects-item__icon" transform="translate(-1318.017 -2179)">
    <g id="Union_18" data-name="Union 18" transform="translate(1318.017 2179.001)" fill="none">
      <path d="M65.2,98H18.839V74.323l-6.125,10.61a6.812,6.812,0,0,1-11.8-6.812l20.923-36.24a6.785,6.785,0,0,1,2.128-2.268q.49-.564,1.024-1.1a20.864,20.864,0,0,1,14.849-6.152H44.2a20.843,20.843,0,0,1,13.009,4.511,6.779,6.779,0,0,1,3.12,1.845L73.668,52.535,84.644,39.454a6.812,6.812,0,0,1,10.437,8.757L78.817,67.595A6.813,6.813,0,0,1,67.142,65.39L65.2,63.375V98h0ZM25.348,15.026A15.026,15.026,0,1,1,40.374,30.052,15.026,15.026,0,0,1,25.348,15.026Z" stroke="none"/>
      <path d="M 63.19689559936523 95.99919891357422 L 63.19689559936523 63.3754997253418 L 63.19689559936523 58.42532730102539 L 66.63558197021484 61.98618698120117 L 68.58048248291016 64.00018310546875 L 68.89429473876953 64.32515716552734 L 69.0379638671875 64.75348663330078 C 69.31805419921875 65.58848571777344 69.82553863525391 66.33149719238281 70.50557708740234 66.90219879150391 C 71.37073516845703 67.62824249267578 72.46784973144531 68.02809906005859 73.59481048583984 68.02809906005859 C 75.02286529541016 68.02809906005859 76.36772155761719 67.40147399902344 77.28453826904297 66.30891418457031 L 93.54936981201172 46.92557144165039 C 94.37551116943359 45.94108581542969 94.76876831054688 44.69378662109375 94.65670776367188 43.41339874267578 C 94.54465484619141 42.13298416137695 93.94068145751953 40.97280120849609 92.9560546875 40.14652633666992 C 92.0906982421875 39.42034149169922 90.99330902099609 39.02041244506836 89.86606597900391 39.02041244506836 C 88.43775177001953 39.02041244506836 87.09291076660156 39.64702987670898 86.17616271972656 40.73981475830078 L 75.19976806640625 53.82041549682617 L 73.77198028564453 55.52191543579102 L 72.22902679443359 53.92409896850586 L 58.88633728027344 40.10711288452148 C 58.28102493286133 39.48012924194336 57.51960754394531 39.02965545654297 56.68442153930664 38.80442810058594 L 56.28649520874023 38.69711303710938 L 55.96340942382813 38.44121551513672 C 52.59425354003906 35.77270126342773 48.52523803710938 34.36219787597656 44.19629669189453 34.36219787597656 L 39.83849334716797 34.36219787597656 C 34.76398086547852 34.36219787597656 29.99270820617676 36.33881378173828 26.40363693237305 39.92788696289063 C 26.08370971679688 40.2478141784668 25.7712230682373 40.58300018310547 25.47485160827637 40.92409896850586 L 25.29702377319336 41.12875747680664 L 25.07112312316895 41.2786865234375 C 24.45080947875977 41.69041442871094 23.94563674926758 42.2293701171875 23.56965255737305 42.88059997558594 L 2.646451950073242 79.12088775634766 C 2.00379490852356 80.23401641845703 1.833037734031677 81.53076934814453 2.16565203666687 82.77227020263672 C 2.498251914978027 84.01375579833984 3.29438042640686 85.05135345458984 4.407166481018066 85.69381713867188 C 5.139023303985596 86.11622619628906 5.969080448150635 86.33950042724609 6.807594776153564 86.33950042724609 C 8.524923324584961 86.33950042724609 10.12423801422119 85.41734313964844 10.98133754730225 83.93299865722656 L 17.10673713684082 73.32342529296875 L 20.83879470825195 66.85928344726563 L 20.83879470825195 74.32342529296875 L 20.83879470825195 95.99919891357422 L 63.19689559936523 95.99919891357422 M 40.37399673461914 28.05189895629883 C 43.85349655151367 28.05189895629883 47.12472152709961 26.69692802429199 49.58507919311523 24.23657035827637 C 52.04543685913086 21.7762279510498 53.40040969848633 18.5049991607666 53.40040969848633 15.02549934387207 C 53.40040969848633 11.54599952697754 52.04543685913086 8.274770736694336 49.58507919311523 5.814427852630615 C 47.12472152709961 3.354070901870728 43.85349655151367 1.999099493026733 40.37399673461914 1.999099493026733 C 36.89449310302734 1.999099493026733 33.62326812744141 3.354070901870728 31.16292381286621 5.814427852630615 C 28.70256614685059 8.274770736694336 27.34759521484375 11.54599952697754 27.34759521484375 15.02549934387207 C 27.34759521484375 18.5049991607666 28.70256614685059 21.7762279510498 31.16292381286621 24.23657035827637 C 33.62326812744141 26.69692802429199 36.89449310302734 28.05189895629883 40.37399673461914 28.05189895629883 M 65.19689178466797 98.00009918212891 L 65.19689178466797 97.99919891357422 L 18.83879470825195 97.99919891357422 L 18.83879470825195 74.32342529296875 L 12.71339511871338 84.93299865722656 C 11.45159435272217 87.11820220947266 9.161094665527344 88.33950042724609 6.807594776153564 88.33950042724609 C 5.651094913482666 88.33950042724609 4.480209350585938 88.04519653320313 3.407394886016846 87.42600250244141 C 0.1493948251008987 85.54501342773438 -0.9665908813476563 81.37889862060547 0.9143948554992676 78.12090301513672 L 21.83759498596191 41.88059997558594 C 22.38143730163574 40.93864059448242 23.11642265319824 40.17562866210938 23.96512413024902 39.61232757568359 C 24.2920093536377 39.23611450195313 24.63353729248047 38.86957168579102 24.98939514160156 38.51369857788086 C 28.9556941986084 34.54739761352539 34.22970962524414 32.36219787597656 39.83849334716797 32.36219787597656 L 44.19629669189453 32.36219787597656 C 48.97708129882813 32.36219787597656 53.51332473754883 33.94931411743164 57.20518112182617 36.8734130859375 C 58.35485076904297 37.18345642089844 59.43809509277344 37.79911422729492 60.32521057128906 38.71799850463867 L 73.66770935058594 52.53479766845703 L 84.64411163330078 39.45420074462891 C 85.99126434326172 37.84833908081055 87.92218017578125 37.02042007446289 89.86605834960938 37.02042007446289 C 91.41166687011719 37.02042007446289 92.96525573730469 37.54335784912109 94.24169158935547 38.61449813842773 C 97.12351226806641 41.03279876708984 97.49971008300781 45.32939910888672 95.08140563964844 48.21120071411133 L 78.81661224365234 67.59449768066406 C 77.46929168701172 69.20009613037109 75.53881072998047 70.02809906005859 73.59481048583984 70.02809906005859 C 72.04949188232422 70.02809906005859 70.49610900878906 69.50520324707031 69.21990966796875 68.43419647216797 C 68.22360992431641 67.59809875488281 67.52699279785156 66.53790283203125 67.14179229736328 65.38949584960938 L 65.19689178466797 63.3754997253418 L 65.19689178466797 97.99919891357422 L 65.19689178466797 98.00009918212891 Z M 40.37399673461914 30.05189895629883 C 32.07509613037109 30.05189895629883 25.34759521484375 23.32439994812012 25.34759521484375 15.02549934387207 C 25.34759521484375 6.72659969329834 32.07509613037109 -0.0009005432366393507 40.37399673461914 -0.0009005432366393507 C 48.67289352416992 -0.0009005432366393507 55.40040969848633 6.72659969329834 55.40040969848633 15.02549934387207 C 55.40040969848633 23.32439994812012 48.67289352416992 30.05189895629883 40.37399673461914 30.05189895629883 Z" stroke="none" fill="#a89365"/>
    </g>
    <g id="Rectangle_83" data-name="Rectangle 83" transform="translate(1352.062 2212.088)" fill="none" stroke="#a89365" stroke-width="2">
      <rect width="12.651" height="7.785" stroke="none"/>
      <rect x="1" y="1" width="10.651" height="5.785" fill="none"/>
    </g>
    <path id="Path_301" data-name="Path 301" d="M21709.77-7617.341l5.266,17.93-6.707,7.865-7.865-7.865,4.779-17.93" transform="translate(-20348.924 9836.883)" fill="none" stroke="#a89365" stroke-width="2"/>
    <g id="Rectangle_84" data-name="Rectangle 84" transform="translate(1345.25 2188.732)" fill="none" stroke="#a89365" stroke-width="2">
      <rect width="11.678" height="8.759" stroke="none"/>
      <rect x="1" y="1" width="9.678" height="6.759" fill="none"/>
    </g>
    <g id="Rectangle_85" data-name="Rectangle 85" transform="translate(1359.847 2188.732)" fill="none" stroke="#a89365" stroke-width="2">
      <rect width="11.678" height="8.759" stroke="none"/>
      <rect x="1" y="1" width="9.678" height="6.759" fill="none"/>
    </g>
    <line id="Line_42" data-name="Line 42" x2="3.893" transform="translate(1356.441 2193.111)" fill="none" stroke="#a89365" stroke-width="2"/>
    <g id="Polygon_2" data-name="Polygon 2" transform="matrix(0.819, 0.574, -0.574, 0.819, 1437.117, 2179.017)" fill="none">
      <path d="M1.946,0,3.893,46.713H0Z" stroke="none"/>
      <path d="M 1.946362018585205 -3.814697265625e-06 L 3.892722129821777 46.71268463134766 L 1.9073486328125e-06 46.71268463134766 L 1.946362018585205 -3.814697265625e-06 Z" stroke="none" fill="#a89365"/>
    </g>
  </g>
</svg>
