<svg xmlns="http://www.w3.org/2000/svg" width="140.699" height="208" viewBox="0 0 140.699 208">
  <g id="__icon" transform="translate(-186 -1277)">
    <g id="Group_206" data-name="Group 206" transform="translate(-54.287 110.578)">
      <g id="Group_128" data-name="Group 128" transform="translate(240.287 1167.422)">
        <g id="Group_125" data-name="Group 125" transform="translate(0)">
          <g id="Ellipse_81" data-name="Ellipse 81" transform="translate(10.756)" fill="none" stroke="#a89365" stroke-width="4">
            <ellipse cx="15.539" cy="15.539" rx="15.539" ry="15.539" stroke="none"/>
            <ellipse cx="15.539" cy="15.539" rx="13.539" ry="13.539" fill="none"/>
          </g>
          <g id="Subtraction_12" data-name="Subtraction 12" transform="translate(0 33.468)" fill="none">
            <path d="M54.984,58.074H0V21A21,21,0,0,1,21,0H33.984a21,21,0,0,1,21,21V58.073Z" stroke="none"/>
            <path d="M 50.98370361328125 54.07340240478516 L 50.98370361328125 21.00060081481934 C 50.98370361328125 16.4594783782959 49.21546173095703 12.19022274017334 46.00471496582031 8.979278564453125 C 42.79396057128906 5.768345355987549 38.52492904663086 4.000000953674316 33.98400497436523 4.000000953674316 L 20.99970626831055 4.000000953674316 C 16.45878410339355 4.000000953674316 12.18973922729492 5.768345355987549 8.978994369506836 8.979278564453125 C 5.76823902130127 12.19021224975586 4.00000524520874 16.4594669342041 4.00000524520874 21.00060081481934 L 4.00000524520874 54.07340240478516 L 50.98370361328125 54.07340240478516 M 54.98370361328125 58.07440185546875 L 54.98370361328125 58.07340240478516 L 5.454847723740386e-06 58.07340240478516 L 5.454847723740386e-06 21.00060081481934 C 5.454847723740386e-06 15.39108943939209 2.184283256530762 10.1173677444458 6.150483131408691 6.150934219360352 C 10.11673831939697 2.184445381164551 15.390305519104 9.277343906433089e-07 20.99970626831055 9.277343906433089e-07 L 33.98400497436523 9.277343906433089e-07 C 39.5933952331543 9.277343906433089e-07 44.86696243286133 2.184445381164551 48.83322906494141 6.150934219360352 C 52.79941558837891 10.1173677444458 54.98370361328125 15.39108943939209 54.98370361328125 21.00060081481934 L 54.98370361328125 58.07340240478516 L 54.98370361328125 58.07440185546875 Z" stroke="none" fill="#a89365"/>
          </g>
        </g>
      </g>
      <g id="Group_205" data-name="Group 205" transform="translate(326.002 1282.098)">
        <g id="Group_125-2" data-name="Group 125" transform="translate(0)">
          <g id="Ellipse_81-2" data-name="Ellipse 81" transform="translate(10.756)" fill="none" stroke="#a89365" stroke-width="4">
            <ellipse cx="15.539" cy="15.539" rx="15.539" ry="15.539" stroke="none"/>
            <ellipse cx="15.539" cy="15.539" rx="13.539" ry="13.539" fill="none"/>
          </g>
          <g id="Subtraction_12-2" data-name="Subtraction 12" transform="translate(0 33.468)" fill="none">
            <path d="M54.984,58.074H0V21A21,21,0,0,1,21,0H33.984a21,21,0,0,1,21,21V58.073Z" stroke="none"/>
            <path d="M 50.98370361328125 54.07340240478516 L 50.98370361328125 21.00060081481934 C 50.98370361328125 16.4594783782959 49.21546173095703 12.19022274017334 46.00471496582031 8.979278564453125 C 42.79396057128906 5.768345355987549 38.52492904663086 4.000000953674316 33.98400497436523 4.000000953674316 L 20.99970626831055 4.000000953674316 C 16.45878410339355 4.000000953674316 12.18973922729492 5.768345355987549 8.978994369506836 8.979278564453125 C 5.76823902130127 12.19021224975586 4.00000524520874 16.4594669342041 4.00000524520874 21.00060081481934 L 4.00000524520874 54.07340240478516 L 50.98370361328125 54.07340240478516 M 54.98370361328125 58.07440185546875 L 54.98370361328125 58.07340240478516 L 5.454847723740386e-06 58.07340240478516 L 5.454847723740386e-06 21.00060081481934 C 5.454847723740386e-06 15.39108943939209 2.184283256530762 10.1173677444458 6.150483131408691 6.150934219360352 C 10.11673831939697 2.184445381164551 15.390305519104 9.277343906433089e-07 20.99970626831055 9.277343906433089e-07 L 33.98400497436523 9.277343906433089e-07 C 39.5933952331543 9.277343906433089e-07 44.86696243286133 2.184445381164551 48.83322906494141 6.150934219360352 C 52.79941558837891 10.1173677444458 54.98370361328125 15.39108943939209 54.98370361328125 21.00060081481934 L 54.98370361328125 58.07340240478516 L 54.98370361328125 58.07440185546875 Z" stroke="none" fill="#a89365"/>
          </g>
        </g>
      </g>
      <g id="Group_203" data-name="Group 203" transform="translate(306.679 1219.984) rotate(-14)">
        <path id="Path_493" data-name="Path 493" d="M0,0S27.977,18.707,32.581,50.636" fill="none" stroke="#a89365" stroke-width="4"/>
        <path id="Path_494" data-name="Path 494" d="M0,2.03,14,13.573,25.3,0" transform="matrix(0.978, -0.208, 0.208, 0.978, 16.468, 41.092)" fill="none" stroke="#a89365" stroke-width="4"/>
      </g>
      <g id="Group_204" data-name="Group 204" transform="translate(252.684 1281.771) rotate(-16)">
        <path id="Path_493-2" data-name="Path 493" d="M32.581,50.637S4.6,31.929,0,0" transform="translate(11.451 3.732)" fill="none" stroke="#a89365" stroke-width="4"/>
        <path id="Path_494-2" data-name="Path 494" d="M0,2.03,14,13.573,25.3,0" transform="translate(27.565 13.276) rotate(168)" fill="none" stroke="#a89365" stroke-width="4"/>
      </g>
    </g>
    <rect id="Rectangle_261" data-name="Rectangle 261" width="140" height="208" transform="translate(186 1277)" fill="none"/>
  </g>
</svg>
