<svg xmlns="http://www.w3.org/2000/svg" xmlns:xlink="http://www.w3.org/1999/xlink" width="271" height="271" viewBox="0 0 271 271">
  <defs>
    <clipPath id="clip-path">
      <rect id="Rectangle_277" data-name="Rectangle 277" width="271" height="271" transform="translate(-2285 8409)" fill="#fff"/>
    </clipPath>
  </defs>
  <g id="interaction" transform="translate(2285 -8409)" clip-path="url(#clip-path)">
    <g id="__icon" transform="translate(-2484.494 6743.216)">
      <g id="Group_206" data-name="Group 206" transform="translate(223.204 1689.663)">
        <g id="Group_205" data-name="Group 205" transform="translate(141.253 97.936)">
          <g id="Group_125" data-name="Group 125" transform="translate(0 0)">
            <g id="Ellipse_81" data-name="Ellipse 81" transform="translate(16.846)" fill="none" stroke="#a89365" stroke-width="7">
              <circle cx="24.337" cy="24.337" r="24.337" stroke="none"/>
              <circle cx="24.337" cy="24.337" r="20.837" fill="none"/>
            </g>
            <g id="Subtraction_12" data-name="Subtraction 12" transform="translate(0 52.417)">
              <path id="Path_733" data-name="Path 733" d="M86.115,72.588H0V26.248C0,11.752,14.725,0,32.89,0H53.225c18.165,0,32.89,11.752,32.89,26.248V72.587Z" fill="none"/>
              <path id="Path_734" data-name="Path 734" d="M79.85,67.588V26.249c0-5.676-2.769-11.012-7.8-15.026A30.172,30.172,0,0,0,53.225,5H32.889a30.173,30.173,0,0,0-18.827,6.224c-5.029,4.013-7.8,9.35-7.8,15.026V67.588H79.85m6.265,5H0V26.249c0-7.011,3.421-13.6,9.633-18.561A37.272,37.272,0,0,1,32.889,0H53.225A37.272,37.272,0,0,1,76.482,7.688c6.212,4.958,9.633,11.549,9.633,18.561V72.587Z" transform="translate(0 0)" fill="#a89365"/>
            </g>
          </g>
        </g>
        <g id="Group_205-2" data-name="Group 205" transform="translate(0 0)">
          <g id="Group_125-2" data-name="Group 125" transform="translate(0 0)">
            <g id="Ellipse_81-2" data-name="Ellipse 81" transform="translate(16.846)" fill="none" stroke="#a89365" stroke-width="7">
              <circle cx="24.337" cy="24.337" r="24.337" stroke="none"/>
              <circle cx="24.337" cy="24.337" r="20.837" fill="none"/>
            </g>
            <g id="Subtraction_12-2" data-name="Subtraction 12" transform="translate(0 52.417)">
              <path id="Path_733-2" data-name="Path 733" d="M86.115,72.588H0V26.248C0,11.752,14.725,0,32.89,0H53.225c18.165,0,32.89,11.752,32.89,26.248V72.587Z" fill="none"/>
              <path id="Path_734-2" data-name="Path 734" d="M79.85,67.588V26.249c0-5.676-2.769-11.012-7.8-15.026A30.172,30.172,0,0,0,53.225,5H32.889a30.173,30.173,0,0,0-18.827,6.224c-5.029,4.013-7.8,9.35-7.8,15.026V67.588H79.85m6.265,5H0V26.249c0-7.011,3.421-13.6,9.633-18.561A37.272,37.272,0,0,1,32.889,0H53.225A37.272,37.272,0,0,1,76.482,7.688c6.212,4.958,9.633,11.549,9.633,18.561V72.587Z" transform="translate(0 0)" fill="#a89365"/>
            </g>
          </g>
        </g>
        <g id="Group_203" data-name="Group 203" transform="matrix(0.97, -0.242, 0.242, 0.97, 107.055, 85.379)">
          <path id="Path_493" data-name="Path 493" d="M0,0S21.366,14.286,24.882,38.67" fill="none" stroke="#a89365" stroke-width="7"/>
          <path id="Path_494" data-name="Path 494" d="M0,1.55l10.69,8.814L19.319,0" transform="translate(12.576 31.382) rotate(-12.007)" fill="none" stroke="#a89365" stroke-width="7"/>
        </g>
        <g id="Group_204" data-name="Group 204" transform="translate(91.607 133.152) rotate(-16)">
          <path id="Path_493-2" data-name="Path 493" d="M24.882,38.671S3.513,24.384,0,0" transform="translate(8.748 2.85)" fill="none" stroke="#a89365" stroke-width="7"/>
          <path id="Path_494-2" data-name="Path 494" d="M0,1.55l10.692,8.815L19.321,0" transform="translate(21.054 10.139) rotate(168)" fill="none" stroke="#a89365" stroke-width="7"/>
        </g>
      </g>
    </g>
  </g>
</svg>
