<svg xmlns="http://www.w3.org/2000/svg" width="230" height="149.73" viewBox="0 0 230 149.73">
  <g id="in-line-solution-item__icon" transform="translate(-62 -2009.27)">
    <g id="работы" transform="translate(75.944 2148.366) rotate(-90)">
      <path id="Path_217" data-name="Path 217" d="M79.1,21.489,38.68,0,30.907,4.846,50.842,36.76,27.707,51.207,7.773,19.294,0,24.141,1.555,69.862,41.88,91.35l7.132-4.389,52.854,84.675a7.75,7.75,0,0,0,10.7,2.469L124,166.973a7.75,7.75,0,0,0,2.469-10.7L73.611,71.6l7.132-4.389Z" transform="translate(-6.851 35.759)" fill="none" stroke="#a89365" stroke-miterlimit="10" stroke-width="4"/>
      <g id="Group_45" data-name="Group 45" transform="translate(75.338 -11.944)">
        <path id="Path_218" data-name="Path 218" d="M46.087,0H15.362L0,26.61l15.362,26.61H46.087L61.449,26.61Z" transform="translate(0 0)" fill="none" stroke="#a89365" stroke-miterlimit="10" stroke-width="4"/>
        <ellipse id="Ellipse_30" data-name="Ellipse 30" cx="17.557" cy="17.557" rx="17.557" ry="17.557" transform="translate(13.168 9.053)" fill="none" stroke="#a89365" stroke-miterlimit="10" stroke-width="4"/>
      </g>
    </g>
    <rect id="Rectangle_212" data-name="Rectangle 212" width="228" height="148" transform="translate(64 2011)" fill="none"/>
  </g>
</svg>
