<svg xmlns="http://www.w3.org/2000/svg" xmlns:xlink="http://www.w3.org/1999/xlink" width="271" height="271" viewBox="0 0 271 271">
  <defs>
    <clipPath id="clip-path">
      <rect id="Rectangle_280" data-name="Rectangle 280" width="271" height="271" transform="translate(-2285 9085)" fill="#fff"/>
    </clipPath>
  </defs>
  <g id="secure" transform="translate(2285 -9085)" clip-path="url(#clip-path)">
    <g id="Group_444" data-name="Group 444" transform="translate(-2641.34 7090.17)">
      <g id="Group_201" data-name="Group 201" transform="translate(374.941 2011.629)">
        <path id="Path_489" data-name="Path 489" d="M-14116.773-15773.934s94.232-53.457,117.95-200" transform="translate(14229.795 16011.866)" fill="none" stroke="#a89365" stroke-width="8"/>
        <path id="Path_490" data-name="Path 490" d="M-13998.817-15773.818s-90.685-53.572-114.4-200.113" transform="translate(14115.798 16011.866)" fill="none" stroke="#a89365" stroke-width="7.897"/>
        <path id="Path_491" data-name="Path 491" d="M-14389.58-16039.606s90.177-14.057,118.646-42.4" transform="translate(14388.961 16082.013)" fill="none" stroke="#a89365" stroke-width="7.897"/>
        <path id="Path_492" data-name="Path 492" d="M-14269.115-16039.632a100.719,100.719,0,0,0-10.207-2.119c-24.249-4.043-88.5-16.285-111.164-40.1" transform="translate(14502.935 16082.014)" fill="none" stroke="#a89365" stroke-width="7.897"/>
      </g>
      <path id="Union_23" data-name="Union 23" d="M66.8,0,36.45,66.792ZM0,29.708,36.443,66.792Z" transform="translate(465.184 2089.965) rotate(10)" fill="none" stroke="#a89365" stroke-linejoin="round" stroke-width="7.897"/>
    </g>
  </g>
</svg>
