<?xml version="1.0" encoding="utf-8"?>
<!-- Generator: Adobe Illustrator 23.1.0, SVG Export Plug-In . SVG Version: 6.00 Build 0)  -->
<svg version="1.1" id="Слой_1" xmlns="http://www.w3.org/2000/svg" xmlns:xlink="http://www.w3.org/1999/xlink" x="0px" y="0px"
	 viewBox="0 0 192 155.6" style="enable-background:new 0 0 192 155.6;" xml:space="preserve">
<style type="text/css">
	.st0{fill:none;stroke:#B39B6B;stroke-width:4;}
	.st1{fill:none;stroke:#B39B6B;stroke-width:4;stroke-linejoin:round;}
	.st2{fill:#B39B6B;}
	.st3{fill:none;stroke:#B39B6B;}
</style>
<g id="smart-home_1_" transform="translate(2 1.62)">
	<path id="Path_388" class="st0" d="M23.7,68.4V152h141.7V68.4"/>
	<path id="Path_389" class="st1" d="M94.5,2.4L187,69.3v11.8l-92.5-59L2,81.2V69.3l31.5-22.8 M94.5,2.4L53.2,32.3V16.2H33.5v30.4
		 M94.5,2.4l-61,44.1"/>
	<path id="Rectangle_124" class="st0" d="M31.5,4.4h23.6c1.1,0,2,0.9,2,2v7.9c0,1.1-0.9,2-2,2H31.5c-1.1,0-2-0.9-2-2V6.4
		C29.6,5.3,30.4,4.4,31.5,4.4z"/>
	<path id="Path_390" class="st2" d="M134.9,107.7c-0.8,0.8-2,0.8-2.8,0C110.9,88,78.1,88,57,107.7c-0.8,0.7-2,0.7-2.8,0
		c-0.8-0.7-0.8-2,0-2.7c0,0,0,0,0,0c22.7-21.2,58-21.2,80.7,0C135.6,105.7,135.6,106.9,134.9,107.7
		C134.9,107.7,134.9,107.7,134.9,107.7z M124.4,115.4c0.8,0.7,0.8,1.9,0.1,2.7c0,0,0,0-0.1,0.1c-0.8,0.8-2,0.8-2.8,0
		c-15.4-13.9-38.8-13.9-54.2,0c-0.8,0.7-2,0.7-2.8,0c-0.8-0.7-0.8-1.9,0-2.7c0,0,0,0,0.1-0.1C81.5,99.9,107.5,99.9,124.4,115.4
		L124.4,115.4z M114,128.6c0.7-0.7,0.8-1.9,0.1-2.6c0,0-0.1-0.1-0.1-0.1c-11.1-9.7-27.7-9.7-38.9,0c-0.8,0.7-0.8,1.9-0.1,2.6
		c0,0,0.1,0.1,0.1,0.1c0.8,0.8,2,0.8,2.8,0.1c9.6-8.2,23.7-8.2,33.3,0C112,129.4,113.2,129.3,114,128.6z"/>
	<path id="Path_391" class="st3" d="M134.9,107.7c-0.8,0.8-2,0.8-2.8,0C110.9,88,78.1,88,57,107.7c-0.8,0.7-2,0.7-2.8,0
		c-0.8-0.7-0.8-2,0-2.7c0,0,0,0,0,0c22.7-21.2,58-21.2,80.7,0C135.6,105.7,135.6,106.9,134.9,107.7
		C134.9,107.7,134.9,107.7,134.9,107.7z M124.4,115.4c0.8,0.7,0.8,1.9,0.1,2.7c0,0,0,0-0.1,0.1c-0.8,0.8-2,0.8-2.8,0
		c-15.4-13.9-38.8-13.9-54.2,0c-0.8,0.7-2,0.7-2.8,0c-0.8-0.7-0.8-1.9,0-2.7c0,0,0,0,0.1-0.1C81.5,99.9,107.5,99.9,124.4,115.4
		L124.4,115.4z M114,128.6c0.7-0.7,0.8-1.9,0.1-2.6c0,0-0.1-0.1-0.1-0.1c-11.1-9.7-27.7-9.7-38.9,0c-0.8,0.7-0.8,1.9-0.1,2.6
		c0,0,0.1,0.1,0.1,0.1c0.8,0.8,2,0.8,2.8,0.1c9.6-8.2,23.7-8.2,33.3,0C112,129.4,113.2,129.3,114,128.6z"/>
	<line id="Line_68" class="st0" x1="23.7" y1="68.4" x2="165.4" y2="68.4"/>
	<circle id="Ellipse_78" class="st0" cx="94.5" cy="47.7" r="7.9"/>
</g>
<polyline class="st0" points="91.8,7.4 96.5,3.6 101.5,7.6 "/>
</svg>
