<svg xmlns="http://www.w3.org/2000/svg" width="192" height="155.62" viewBox="0 0 192 155.62">
  <g id="smart-home_1_" data-name="smart-home (1)" transform="translate(2 1.62)">
    <path id="Path_388" data-name="Path 388" d="M24,69v85H168V69" transform="translate(-2 -2)" fill="none" stroke="#b39b6b" stroke-width="4"/>
    <path id="Path_389" data-name="Path 389" d="M96,2l94,68V82L96,22,2,82V70L34,46.851M96,2,54,32.383V16H34V46.851M96,2,34,46.851" transform="translate(-2 -2)" fill="none" stroke="#b39b6b" stroke-linejoin="round" stroke-width="4"/>
    <rect id="Rectangle_124" data-name="Rectangle 124" width="28" height="12" rx="2" transform="translate(28 2)" fill="none" stroke="#b39b6b" stroke-width="4"/>
    <path id="Path_390" data-name="Path 390" d="M137.012,108.988a2.056,2.056,0,0,1-2.853.025,56,56,0,0,0-76.318,0,2.057,2.057,0,0,1-2.853-.025,1.95,1.95,0,0,1,.024-2.805,60,60,0,0,1,81.977,0A1.95,1.95,0,0,1,137.012,108.988Zm-10.637,7.81a1.932,1.932,0,0,1,.031,2.8,2.079,2.079,0,0,1-2.863.035,41,41,0,0,0-55.086,0,2.078,2.078,0,0,1-2.862-.035,1.932,1.932,0,0,1,.031-2.8,45,45,0,0,1,60.75,0ZM115.8,130.2a1.9,1.9,0,0,0-.046-2.781,30,30,0,0,0-39.506,0A1.9,1.9,0,0,0,76.2,130.2a2.125,2.125,0,0,0,2.881.055,26,26,0,0,1,33.836,0A2.124,2.124,0,0,0,115.8,130.2Z" transform="translate(-2 -2)" fill="#b39b6b"/>
    <path id="Path_391" data-name="Path 391" d="M137.012,108.988a2.056,2.056,0,0,1-2.853.025,56,56,0,0,0-76.318,0,2.057,2.057,0,0,1-2.853-.025,1.95,1.95,0,0,1,.024-2.805,60,60,0,0,1,81.977,0A1.95,1.95,0,0,1,137.012,108.988Zm-10.637,7.81a1.932,1.932,0,0,1,.031,2.8,2.079,2.079,0,0,1-2.863.035,41,41,0,0,0-55.086,0,2.078,2.078,0,0,1-2.862-.035,1.932,1.932,0,0,1,.031-2.8,45,45,0,0,1,60.75,0ZM115.8,130.2a1.9,1.9,0,0,0-.046-2.781,30,30,0,0,0-39.506,0A1.9,1.9,0,0,0,76.2,130.2a2.125,2.125,0,0,0,2.881.055,26,26,0,0,1,33.836,0A2.124,2.124,0,0,0,115.8,130.2Z" transform="translate(-2 -2)" fill="none" stroke="#b39b6b" stroke-width="1"/>
    <line id="Line_68" data-name="Line 68" x2="144" transform="translate(22 67)" fill="none" stroke="#b39b6b" stroke-width="4"/>
    <circle id="Ellipse_78" data-name="Ellipse 78" cx="8" cy="8" r="8" transform="translate(86 38)" fill="none" stroke="#b39b6b" stroke-width="4"/>
  </g>
</svg>
