<svg xmlns="http://www.w3.org/2000/svg" width="60" height="60" viewBox="0 0 60 60">
  <path id="VK" d="M30,0A30,30,0,1,0,60,30,30,30,0,0,0,30,0Zm2.443,39.47a1.639,1.639,0,0,1-.873.375H29.657A11.094,11.094,0,0,1,21.72,36.3c-4.054-4.143-7.633-12.364-7.633-12.364s-.207-.539.017-.8c.252-.293.939-.312.939-.312l4.572-.029a1.991,1.991,0,0,1,.739.292,1.406,1.406,0,0,1,.4.527A29.873,29.873,0,0,0,22.468,27.1c1.911,3.24,2.8,3.948,3.448,3.6.945-.505.662-4.58.662-4.58a4.487,4.487,0,0,0-.476-2.137,2.174,2.174,0,0,0-1.42-.7c-.258-.034.164-.621.712-.883a10.586,10.586,0,0,1,3.993-.4,8.371,8.371,0,0,1,2.246.22c1.213.287,1.175,1.208,1.094,3.2-.024.594-.053,1.284-.053,2.081,0,.179-.005.37-.011.566-.028,1.018-.061,2.184.623,2.618.351.221,1.207.032,3.349-3.538a27.072,27.072,0,0,0,1.776-3.683,1.335,1.335,0,0,1,.426-.507,1.111,1.111,0,0,1,.621-.107l4.811-.029s1.446-.171,1.679.472c.246.671-.54,2.241-2.506,4.813-1.865,2.44-2.772,3.339-2.689,4.133.061.581.651,1.106,1.783,2.136a14.725,14.725,0,0,1,3.149,3.559l.029.05c1.06,1.725-1.175,1.861-1.175,1.861l-4.274.058a3.072,3.072,0,0,1-2.125-.636A10.952,10.952,0,0,1,36.3,37.482c-.9-1.013-1.731-1.948-2.44-1.727-1.191.372-1.155,2.89-1.155,2.89A1.355,1.355,0,0,1,32.443,39.47Z" fill="#fff" fill-rule="evenodd"/>
</svg>
