<svg xmlns="http://www.w3.org/2000/svg" width="272.955" height="177.569" viewBox="0 0 272.955 177.569">
  <g id="работы" transform="translate(2 175.531) rotate(-90)">
    <path id="Path_217" data-name="Path 217" d="M95.389,25.915,46.647,0,37.273,5.845l24.04,38.486-27.9,17.424L9.373,23.268,0,29.113,1.875,84.251l48.632,25.915,8.6-5.293,63.74,102.116a9.346,9.346,0,0,0,12.9,2.977l13.785-8.6a9.346,9.346,0,0,0,2.977-12.9L88.772,86.346l8.6-5.293Z" transform="translate(0 57.527)" fill="none" stroke="#a89365" stroke-miterlimit="10" stroke-width="4"/>
    <g id="Group_45" data-name="Group 45" transform="translate(99.116)">
      <path id="Path_218" data-name="Path 218" d="M55.579,0H18.526L0,32.09l18.526,32.09H55.579L74.106,32.09Z" fill="none" stroke="#a89365" stroke-miterlimit="10" stroke-width="4"/>
      <ellipse id="Ellipse_30" data-name="Ellipse 30" cx="21.173" cy="21.173" rx="21.173" ry="21.173" transform="translate(15.88 10.917)" fill="none" stroke="#a89365" stroke-miterlimit="10" stroke-width="4"/>
    </g>
  </g>
</svg>
