<svg id="Youtube" xmlns="http://www.w3.org/2000/svg" width="60" height="60" viewBox="0 0 60 60">
  <path id="Path_317" data-name="Path 317" d="M30,0A30,30,0,1,0,60,30,30,30,0,0,0,30,0ZM42.5,19.687a4.063,4.063,0,0,1,2.829,2.9A43.876,43.876,0,0,1,46,30.5a43.877,43.877,0,0,1-.669,7.909,4.063,4.063,0,0,1-2.829,2.9C40.007,42,30,42,30,42s-10.007,0-12.5-.687a4.063,4.063,0,0,1-2.829-2.9A43.89,43.89,0,0,1,14,30.5a43.889,43.889,0,0,1,.668-7.909,4.063,4.063,0,0,1,2.829-2.9C19.993,19,30,19,30,19S40.007,19,42.5,19.687Z" fill="#fff" fill-rule="evenodd"/>
  <path id="Path_318" data-name="Path 318" d="M27,36V26l8,5Z" fill="#fff" fill-rule="evenodd"/>
</svg>
